<svg width="792" height="242" viewBox="0 0 792 242" fill="none" xmlns="http://www.w3.org/2000/svg">
<g filter="url(#filter0_d_164_267)">
<path d="M53.6552 20.3799H738.345L761 90.8626H31L53.6552 20.3799Z" fill="url(#paint0_linear_164_267)"/>
<path d="M31 90.8623H761L735.828 201.621H56.1724L31 90.8623Z" fill="url(#paint1_linear_164_267)"/>
<path d="M31 90.8623H761L735.828 201.621H56.1724L31 90.8623Z" fill="url(#paint2_linear_164_267)" fill-opacity="0.2"/>
<path d="M53.6552 20.3799H469L480.328 90.8626H31L53.6552 20.3799Z" fill="url(#paint3_linear_164_267)"/>
<path d="M31 90.8623H480.328L469 201.621H56.1724L31 90.8623Z" fill="url(#paint4_linear_164_267)"/>
<path d="M31 90.8623H480.328L469 201.621H56.1724L31 90.8623Z" fill="url(#paint5_linear_164_267)" fill-opacity="0.2"/>
<path d="M626.507 20.9207L638.654 90.7632H643.01L626.507 20.9207Z" fill="#787878" fill-opacity="0.3"/>
<path d="M668.182 20.9207L680.329 90.7632H684.685L668.182 20.9207Z" fill="#787878" fill-opacity="0.3"/>
<path d="M709.857 20.9207L722.004 90.7632H726.359L709.857 20.9207Z" fill="#787878" fill-opacity="0.3"/>
<path d="M587.011 20.9207L596.981 90.7632H601.336L587.011 20.9207Z" fill="#787878" fill-opacity="0.3"/>
<path d="M549.692 20.9207L557.484 90.7632H561.839L549.692 20.9207Z" fill="#787878" fill-opacity="0.3"/>
<path d="M513.294 20.3799L520.164 90.7623H524.52L513.294 20.3799Z" fill="#787878" fill-opacity="0.3"/>
<path d="M476.223 20.9207L483.766 90.7632H488.121L476.223 20.9207Z" fill="#787878" fill-opacity="0.2"/>
<path d="M441.33 20.9195L446.696 90.762H451.052L441.33 20.9195Z" fill="#787878" fill-opacity="0.3"/>
<path d="M408.951 20.9195L411.802 90.762H416.158L408.951 20.9195Z" fill="#787878" fill-opacity="0.3"/>
<path d="M166.092 20.9195L153.945 90.762H149.589L166.092 20.9195Z" fill="#787878" fill-opacity="0.3"/>
<path d="M124.418 20.9195L112.27 90.762H107.915L124.418 20.9195Z" fill="#787878" fill-opacity="0.3"/>
<path d="M82.743 20.9195L70.5955 90.762H66.2402L82.743 20.9195Z" fill="#787878" fill-opacity="0.3"/>
<path d="M205.589 20.9195L195.619 90.762H191.264L205.589 20.9195Z" fill="#787878" fill-opacity="0.3"/>
<path d="M242.907 20.9195L235.116 90.762H230.761L242.907 20.9195Z" fill="#787878" fill-opacity="0.3"/>
<path d="M279.305 20.3799L272.435 90.7623H268.079L279.305 20.3799Z" fill="#787878" fill-opacity="0.3"/>
<path d="M316.376 20.9195L308.832 90.762H304.477L316.376 20.9195Z" fill="#787878" fill-opacity="0.3"/>
<path d="M351.27 20.9195L345.904 90.762H341.549L351.27 20.9195Z" fill="#787878" fill-opacity="0.3"/>
<path d="M383.649 20.9195L380.798 90.762H376.442L383.649 20.9195Z" fill="#787878" fill-opacity="0.3"/>
<path d="M626.509 200.774L638.656 90.864H643.012L626.509 200.774Z" fill="#787878" fill-opacity="0.3"/>
<path d="M668.183 200.774L680.33 90.864H684.686L668.183 200.774Z" fill="#787878" fill-opacity="0.3"/>
<path d="M709.858 200.774L722.005 90.864H726.36L709.858 200.774Z" fill="#787878" fill-opacity="0.3"/>
<path d="M587.011 200.774L596.981 90.864H601.336L587.011 200.774Z" fill="#787878" fill-opacity="0.3"/>
<path d="M549.693 200.774L557.485 90.864H561.84L549.693 200.774Z" fill="#787878" fill-opacity="0.3"/>
<path d="M513.295 201.621L520.165 90.8621H524.521L513.295 201.621Z" fill="#787878" fill-opacity="0.3"/>
<path d="M476.224 200.774L483.767 90.864H488.122L476.224 200.774Z" fill="#787878" fill-opacity="0.3"/>
<path d="M441.33 200.774L446.696 90.864H451.052L441.33 200.774Z" fill="#787878" fill-opacity="0.3"/>
<path d="M408.951 200.774L411.803 90.864H416.158L408.951 200.774Z" fill="#787878" fill-opacity="0.3"/>
<path d="M166.093 200.774L153.945 90.864H149.59L166.093 200.774Z" fill="#787878" fill-opacity="0.3"/>
<path d="M124.418 200.774L112.27 90.864H107.915L124.418 200.774Z" fill="#787878" fill-opacity="0.3"/>
<path d="M82.743 200.774L70.5955 90.864H66.2402L82.743 200.774Z" fill="#787878" fill-opacity="0.3"/>
<path d="M205.588 200.774L195.619 90.864H191.264L205.588 200.774Z" fill="#787878" fill-opacity="0.3"/>
<path d="M242.907 200.774L235.116 90.864H230.761L242.907 200.774Z" fill="#787878" fill-opacity="0.3"/>
<path d="M279.305 201.621L272.434 90.8621H268.079L279.305 201.621Z" fill="#787878" fill-opacity="0.3"/>
<path d="M316.375 200.774L308.831 90.864H304.477L316.375 200.774Z" fill="#787878" fill-opacity="0.3"/>
<path d="M351.27 200.774L345.904 90.864H341.549L351.27 200.774Z" fill="#787878" fill-opacity="0.3"/>
<path d="M383.65 200.774L380.798 90.864H376.442L383.65 200.774Z" fill="#787878" fill-opacity="0.3"/>
</g>
<defs>
<filter id="filter0_d_164_267" x="0.793106" y="-0.137929" width="790.414" height="242.414" filterUnits="userSpaceOnUse" color-interpolation-filters="sRGB">
<feFlood flood-opacity="0" result="BackgroundImageFix"/>
<feColorMatrix in="SourceAlpha" type="matrix" values="0 0 0 0 0 0 0 0 0 0 0 0 0 0 0 0 0 0 127 0" result="hardAlpha"/>
<feOffset dy="10.069"/>
<feGaussianBlur stdDeviation="15.1034"/>
<feComposite in2="hardAlpha" operator="out"/>
<feColorMatrix type="matrix" values="0 0 0 0 0.140059 0 0 0 0 0.0965088 0 0 0 0 0.18361 0 0 0 0.5 0"/>
<feBlend mode="normal" in2="BackgroundImageFix" result="effect1_dropShadow_164_267"/>
<feBlend mode="normal" in="SourceGraphic" in2="effect1_dropShadow_164_267" result="shape"/>
</filter>
<linearGradient id="paint0_linear_164_267" x1="744.638" y1="55.6213" x2="119.976" y2="309.653" gradientUnits="userSpaceOnUse">
<stop stop-color="#755C8F"/>
<stop offset="1" stop-color="#27202E"/>
</linearGradient>
<linearGradient id="paint1_linear_164_267" x1="724.5" y1="201.621" x2="122.232" y2="-94.6168" gradientUnits="userSpaceOnUse">
<stop stop-color="#674E81"/>
<stop offset="1" stop-color="#27202E"/>
</linearGradient>
<linearGradient id="paint2_linear_164_267" x1="396" y1="90.8623" x2="396" y2="201.621" gradientUnits="userSpaceOnUse">
<stop stop-color="#474747" stop-opacity="0.6"/>
<stop offset="1" stop-color="#474747" stop-opacity="0"/>
</linearGradient>
<linearGradient id="paint3_linear_164_267" x1="57.431" y1="20.3799" x2="484.103" y2="90.8627" gradientUnits="userSpaceOnUse">
<stop offset="0.343102" stop-color="#63DEA8"/>
<stop offset="1" stop-color="#EEE74E"/>
</linearGradient>
<linearGradient id="paint4_linear_164_267" x1="49.8793" y1="201.621" x2="458.218" y2="29.4638" gradientUnits="userSpaceOnUse">
<stop offset="0.343102" stop-color="#63DEA8"/>
<stop offset="1" stop-color="#EEE74E"/>
</linearGradient>
<linearGradient id="paint5_linear_164_267" x1="257.552" y1="90.8623" x2="257.552" y2="201.621" gradientUnits="userSpaceOnUse">
<stop stop-color="#474747" stop-opacity="0.6"/>
<stop offset="1" stop-color="#474747" stop-opacity="0"/>
</linearGradient>
</defs>
</svg>
