<svg xmlns="http://www.w3.org/2000/svg" width="124" height="80" viewBox="0 0 124 80" fill="none">
  <path d="M14.8124 18.0862L14.6709 17.2062" stroke="url(#paint0_linear_137_362)" stroke-width="1.23077" stroke-miterlimit="10"/>
  <path fill-rule="evenodd" clip-rule="evenodd" d="M104.662 51.1777L103.807 56.3282L97.9798 76.1989C97.9099 76.4843 97.7105 76.662 97.5376 76.7557C97.3614 76.8512 97.1694 76.8879 97.0025 76.8914C96.8348 76.8949 96.6443 76.866 96.4667 76.7823C96.2888 76.6984 96.0743 76.5323 95.9845 76.2451L95.979 76.2273L91.7715 59.2247L92.9662 58.9291L96.9915 75.1953L102.605 56.0532L103.448 50.9761L104.662 51.1777Z" fill="url(#paint1_linear_137_362)"/>
  <path fill-rule="evenodd" clip-rule="evenodd" d="M16.4873 32.7108L17.7032 32.52L21.1305 54.3586L86.7783 55.3417L86.7599 56.5723L20.0754 55.5738L16.4873 32.7108Z" fill="url(#paint2_linear_137_362)"/>
  <path fill-rule="evenodd" clip-rule="evenodd" d="M11.8271 3.06714L111.734 8.51832L107.622 33.3314L106.408 33.1301L110.295 9.67242L13.2795 4.37898L14.4085 11.5533L14.4121 11.5716L13.2053 11.813L13.1966 11.7697L11.8271 3.06714Z" fill="url(#paint3_linear_137_362)"/>
  <path d="M14.8116 26.1539C14.8116 26.3939 14.8731 26.5724 14.9962 26.6954C15.1193 26.8185 15.2977 26.8862 15.5316 26.8862H16.7624C16.5285 26.8862 16.35 26.8247 16.227 26.6954C16.1039 26.5662 16.0424 26.3877 16.0424 26.1539V25.0831L14.8116 25.1631V26.1539Z" fill="#03B6D5"/>
  <path d="M28.3624 26.8862H27.1316V30.3508H28.3624V26.8862Z" fill="#03B6D5"/>
  <path d="M28.3624 16.5662L27.1316 14.8739V17.8216H28.3624V16.5662Z" fill="#03B6D5"/>
  <path d="M16.227 18.0001C16.35 17.8831 16.5285 17.8216 16.7624 17.8216H15.5316C15.2977 17.8216 15.1193 17.877 14.9962 18.0001C14.8731 18.117 14.8116 18.3016 14.8116 18.5539V24.0801L16.0424 24.0001V18.5539C16.0424 18.3016 16.1039 18.117 16.227 18.0001Z" fill="#03B6D5"/>
  <path d="M36.9841 19.0893L33.2671 14.3508H32.0364L36.3687 19.877L36.9841 19.0893Z" fill="#03B6D5"/>
  <path d="M38.6947 24.4V30.3508H39.9255V24.4L40.5778 23.5016L39.2855 23.5816L38.6947 24.4Z" fill="#03B6D5"/>
  <path d="M45.8886 14.5108L40.1101 22.4493L41.4024 22.3631L45.8886 16.2031V14.5108Z" fill="#03B6D5"/>
  <path d="M51.747 23.9508H50.5162V26.8862H51.747V23.9508Z" fill="#03B6D5"/>
  <path d="M51.747 17.8216H50.5162V20.4862H51.747V17.8216Z" fill="#03B6D5"/>
  <path d="M63.8947 22.64C63.8024 22.4123 63.6977 22.2093 63.5808 22.0185L62.3993 22.0923C62.4977 22.2646 62.5839 22.4431 62.6639 22.64C62.8116 23.0093 62.8854 23.3785 62.8854 23.7477V27.0585C62.8854 27.6493 62.7377 28.197 62.4362 28.7016C62.1347 29.2062 61.7408 29.6062 61.2547 29.9016C60.7685 30.197 60.2208 30.3446 59.6239 30.3446H60.8547C61.4516 30.3446 61.9993 30.197 62.4854 29.9016C62.9716 29.6062 63.3654 29.2062 63.667 28.7016C63.8885 28.3323 64.0239 27.9385 64.0854 27.52V23.4093C64.0485 23.157 63.9993 22.8985 63.8947 22.64Z" fill="#03B6D5"/>
  <path d="M61.8208 15.9878C62.1162 16.4862 62.2701 17.0339 62.2701 17.6431V20.6462C62.2701 20.7816 62.2577 20.9047 62.2454 21.0278L63.4824 20.9478C63.4885 20.8493 63.5008 20.757 63.5008 20.6462V17.6431C63.5008 17.0339 63.3531 16.4862 63.0516 15.9878C62.7501 15.4893 62.3562 15.0955 61.8701 14.8001C61.3839 14.5047 60.8424 14.357 60.2577 14.357H59.027C59.6116 14.357 60.147 14.5047 60.6393 14.8001C61.1254 15.0955 61.5254 15.4893 61.8208 15.9878Z" fill="#03B6D5"/>
  <path d="M69.9808 24.0862H68.75V26.8862H69.9808V24.0862Z" fill="#03B6D5"/>
  <path d="M77.7039 24.0862H78.9346V21.0278L77.7039 21.1078V24.0862Z" fill="#03B6D5"/>
  <path d="M69.9808 20.5231V17.8216H68.75V20.6031L69.9808 20.5231Z" fill="#03B6D5"/>
  <path d="M80.8054 26.8862H79.87V30.3508H80.8054V26.8862Z" fill="#03B6D5"/>
  <path d="M80.8054 17.8216V14.3754H81.1008V14.3508H79.87V17.8216H80.8054Z" fill="#03B6D5"/>
  <path d="M94.5408 25.0893H94.3685H95.5993L95.4824 24.9478C95.1808 25.0401 94.8731 25.0893 94.5408 25.0893Z" fill="#03B6D5"/>
  <path d="M97.8023 21.797C97.8023 22.3878 97.6546 22.9355 97.3531 23.4401C97.0515 23.9447 96.6577 24.3447 96.1715 24.6401C95.9561 24.7693 95.7223 24.8678 95.4823 24.9416L95.5992 25.0832H95.7715C96.3685 25.0832 96.9161 24.9355 97.4023 24.6401C97.8885 24.3447 98.2884 23.9447 98.5838 23.4401C98.8854 22.9355 99.0331 22.3878 99.0331 21.797V19.7355L97.8023 19.8155V21.797Z" fill="#03B6D5"/>
  <path d="M97.7778 29.1755V30.3508H99.0085V29.1755L95.5993 25.0893H94.3685L97.7778 29.1755Z" fill="#03B6D5"/>
  <path d="M98.5838 16.0185C98.2823 15.5139 97.8885 15.1139 97.4023 14.8185C96.9162 14.5231 96.3685 14.3754 95.7715 14.3754H94.5408C95.1377 14.3754 95.6854 14.5231 96.1715 14.8185C96.6577 15.1139 97.0577 15.5139 97.3531 16.0185C97.6546 16.5231 97.8023 17.0708 97.8023 17.6616V18.7262L99.0331 18.6462V17.6616C99.0331 17.0708 98.8792 16.5231 98.5838 16.0185Z" fill="#03B6D5"/>
  <path d="M85.4326 20.6093V21.6185H86.6634V20.5293L85.4326 20.6093Z" fill="#03B6D5"/>
  <path d="M85.4326 25.1078V30.3509H86.6634V25.1078L88.7065 25.1016H88.7003L85.4326 25.1078Z" fill="#03B6D5"/>
  <path d="M86.6634 19.4462V17.8216H85.4326V19.5262L86.6634 19.4462Z" fill="#03B6D5"/>
  <path d="M10.6215 28.7201C10.9107 29.2185 11.3046 29.6124 11.7907 29.9078C12.2769 30.2032 12.8246 30.3508 13.4215 30.3508H14.6523C14.0553 30.3508 13.5076 30.2032 13.0215 29.9078C12.5292 29.6124 12.1415 29.2124 11.8523 28.7201C11.563 28.2216 11.4153 27.6739 11.4153 27.0647V25.3785L10.1846 25.4585V27.0647C10.1846 27.6739 10.3323 28.2216 10.6215 28.7201Z" fill="#DD11D6"/>
  <path d="M34.9046 23.8647L33.7292 23.9447L34.0492 24.3755V30.3508H35.28V24.3755L34.9046 23.8647Z" fill="#DD11D6"/>
  <path d="M11.4153 17.6431C11.4153 17.0339 11.563 16.4862 11.8523 15.9878C12.1415 15.4893 12.5353 15.0955 13.0215 14.8001C13.5076 14.5047 14.0553 14.357 14.6523 14.357H13.4215C12.8246 14.357 12.2769 14.5047 11.7907 14.8001C11.2984 15.0955 10.9107 15.4955 10.6215 15.9878C10.3323 16.4862 10.1846 17.0339 10.1846 17.6431V24.3755L11.4153 24.2955V17.6431Z" fill="#DD11D6"/>
  <path d="M28.363 16.5662L32.9784 22.9047L34.1538 22.8308L28.363 14.8739V16.5662Z" fill="#DD11D6"/>
  <path d="M28.3631 16.5662V14.8739L27.9877 14.3508H27.1323V14.8739L28.3631 16.5662Z" fill="#DD11D6"/>
  <path d="M27.1322 14.3508H26.7568L27.1322 14.8739V14.3508Z" fill="#DD11D6"/>
  <path d="M45.8892 23.157V30.3508H47.1199V23.077L45.8892 23.157Z" fill="#DD11D6"/>
  <path d="M45.8892 16.2031V22.0739L47.1199 21.9939V14.5108L45.8892 16.2031Z" fill="#DD11D6"/>
  <path d="M45.8892 16.2031L47.1199 14.5108V14.3508H46.0061L45.8892 14.5108V16.2031Z" fill="#DD11D6"/>
  <path d="M41.9139 14.3508H40.6831L36.9846 19.0893L37.6 19.877L41.9139 14.3508Z" fill="#DD11D6"/>
  <path d="M36.9845 20.6647L37.5999 19.877L36.9845 19.0893L36.3691 19.877L36.9845 20.6647Z" fill="#DD11D6"/>
  <path d="M64.08 21.9878V23.4155C64.0923 23.5262 64.1107 23.637 64.1107 23.7539V27.0647C64.1107 27.2247 64.0984 27.3785 64.08 27.5262V30.3509H65.3107V21.9078L64.08 21.9878Z" fill="#DD11D6"/>
  <path d="M64.1168 23.7539C64.1168 23.6432 64.0984 23.5324 64.0861 23.4155V27.5262C64.1045 27.3724 64.1168 27.2185 64.1168 27.0647V23.7539Z" fill="#DD11D6"/>
  <path d="M65.3107 14.3508H64.08V20.9047L65.3107 20.8247V14.3508Z" fill="#DD11D6"/>
  <path d="M80.8062 20.9108V26.8862H81.1015V30.3508H82.0369V20.8308L80.8062 20.9108Z" fill="#DD11D6"/>
  <path d="M81.1015 26.8862H80.8062V30.3508H81.1015V26.8862Z" fill="#DD11D6"/>
  <path d="M80.8062 17.8216V19.8277L82.0369 19.7477V14.3754H81.1015V17.8216H80.8062Z" fill="#DD11D6"/>
  <path d="M81.1015 14.3754H80.8062V17.8216H81.1015V14.3754Z" fill="#DD11D6"/>
  <path d="M93.1322 20.117V21.6185H94.363V20.037L93.1322 20.117Z" fill="#DD11D6"/>
  <path d="M94.363 18.9539V17.8216H93.1322V19.0339L94.363 18.9539Z" fill="#DD11D6"/>
  <path d="M88.7076 25.1016L93.0461 30.3509H94.2769L89.9323 25.1016H88.7076Z" fill="#DD11D6"/>
  <path d="M59.4461 23.9508H58.2153V26.8862H59.4461V23.9508Z" fill="#DD11D6"/>
  <path d="M58.8368 17.8216H57.6061V20.4862H58.8368V17.8216Z" fill="#DD11D6"/>
  <path d="M13.5815 26.1539C13.5815 26.3939 13.643 26.5724 13.7661 26.6955C13.8892 26.8185 14.0676 26.8862 14.3015 26.8862H15.5323C15.2984 26.8862 15.1199 26.8247 14.9969 26.6955C14.8738 26.5662 14.8123 26.3878 14.8123 26.1539V25.1631L13.5815 25.2431V26.1539Z" fill="#F5F5F5"/>
  <path d="M13.083 28.7201C12.7938 28.2216 12.6461 27.6739 12.6461 27.0647V25.3047L11.4153 25.3847V27.0708C11.4153 27.6801 11.563 28.2278 11.8523 28.7262C12.1415 29.2247 12.5353 29.6185 13.0215 29.9139C13.5077 30.2093 14.0553 30.357 14.6523 30.357H15.883C15.2861 30.357 14.7384 30.2093 14.2523 29.9139C13.7661 29.6124 13.3784 29.2185 13.083 28.7201Z" fill="#F5F5F5"/>
  <path d="M14.3009 26.8862C14.067 26.8862 13.8886 26.8247 13.7655 26.6955C13.6424 26.5662 13.5809 26.3878 13.5809 26.1539V25.2432L12.6455 25.3047V27.0647C12.6455 27.6739 12.7932 28.2216 13.0824 28.7201C13.3717 29.2185 13.7655 29.6124 14.2517 29.9078C14.7378 30.2032 15.2855 30.3509 15.8824 30.3509H25.9009V26.8862H16.7624H15.5317H14.3009Z" fill="#F5F5F5"/>
  <path d="M39.2854 23.5816L37.9931 23.6678L37.4639 24.4001V30.3508H38.6946V24.4001L39.2854 23.5816Z" fill="#F5F5F5"/>
  <path d="M36.0799 23.7908L34.9045 23.8647L35.2799 24.3754V30.3508H36.5107V24.3754L36.0799 23.7908Z" fill="#F5F5F5"/>
  <path d="M37.9938 23.6677L36.08 23.7908L36.5107 24.3754V30.3508H37.4646V24.4L37.9938 23.6677Z" fill="#F5F5F5"/>
  <path d="M47.12 23.077V30.3508H48.3508V23.0031L47.12 23.077Z" fill="#F5F5F5"/>
  <path d="M61.2061 28.7078C61.5076 28.2031 61.6553 27.6555 61.6553 27.0647V23.7539C61.6553 23.3847 61.5815 23.0155 61.4338 22.6462C61.3661 22.4801 61.2922 22.3262 61.2122 22.1785L48.3507 23.0093V30.3631H58.3876C58.9846 30.3631 59.5322 30.2155 60.0184 29.9201C60.5107 29.6124 60.9046 29.2124 61.2061 28.7078ZM58.2153 26.8862H51.7476H50.5169H49.2861V23.9508H50.5169H51.7476H58.2153H59.4461H60.6769V26.8862H59.4461H58.2153Z" fill="#F5F5F5"/>
  <path d="M79.8708 26.8862H78.64V30.3508H79.8708V26.8862Z" fill="#F5F5F5"/>
  <path d="M69.9815 26.8862H68.7507H67.52V24.0862H68.7507H69.9815H76.4738V21.1877L66.5415 21.8277V30.3508H78.64V26.8862H69.9815Z" fill="#F5F5F5"/>
  <path d="M14.9969 18.0001C15.1199 17.8831 15.2984 17.8216 15.5323 17.8216H14.3015C14.0676 17.8216 13.8892 17.877 13.7661 18.0001C13.643 18.117 13.5815 18.3016 13.5815 18.5539V24.1601L14.8123 24.0801V18.5539C14.8123 18.3016 14.8738 18.117 14.9969 18.0001Z" fill="#F5F5F5"/>
  <path d="M12.6461 17.6431C12.6461 17.0339 12.7938 16.4862 13.083 15.9878C13.3723 15.4893 13.7661 15.0955 14.2523 14.8001C14.7384 14.5047 15.2861 14.357 15.883 14.357H14.6523C14.0553 14.357 13.5077 14.5047 13.0215 14.8001C12.5292 15.0955 12.1415 15.4955 11.8523 15.9878C11.563 16.4862 11.4153 17.0339 11.4153 17.6431V24.3016L12.6461 24.2216V17.6431Z" fill="#F5F5F5"/>
  <path d="M13.0824 15.9878C12.7932 16.4862 12.6455 17.0339 12.6455 17.6431V24.2216L13.5809 24.1601V18.5539C13.5809 18.3016 13.6424 18.117 13.7655 18.0001C13.8886 17.8831 14.067 17.8216 14.3009 17.8216H15.5317H16.7624H25.9009V14.357H15.8886C15.2917 14.357 14.744 14.5047 14.2578 14.8001C13.7655 15.0955 13.3778 15.4893 13.0824 15.9878Z" fill="#F5F5F5"/>
  <path d="M40.1108 22.4493L45.8892 14.5108V14.3508H44.7754L38.8185 22.5293L40.1108 22.4493Z" fill="#F5F5F5"/>
  <path d="M34.1531 22.8308L35.3285 22.757L29.2177 14.3508H28.3623V14.8739L34.1531 22.8308Z" fill="#F5F5F5"/>
  <path d="M60.5907 15.9878C60.8861 16.4862 61.04 17.0339 61.04 17.6431V20.6462C61.04 20.8124 61.0276 20.9601 61.0092 21.1078L62.2461 21.0278C62.2584 20.9047 62.2707 20.7816 62.2707 20.6462V17.6431C62.2707 17.0339 62.123 16.4862 61.8215 15.9878C61.52 15.4893 61.1261 15.0955 60.64 14.8001C60.1538 14.5047 59.6123 14.357 59.0276 14.357H57.7969C58.3815 14.357 58.9169 14.5047 59.4092 14.8001C59.8953 15.0955 60.2953 15.4893 60.5907 15.9878Z" fill="#F5F5F5"/>
  <path d="M47.12 21.9939L48.3508 21.9139V14.3508H47.2369L47.12 14.5108V21.9939Z" fill="#F5F5F5"/>
  <path d="M61.0153 21.1016C61.0338 20.9539 61.0461 20.8062 61.0461 20.6401V17.637C61.0461 17.0278 60.8984 16.4801 60.5969 15.9816C60.2953 15.4831 59.9015 15.0893 59.4153 14.7939C58.9292 14.4985 58.3876 14.3508 57.803 14.3508H48.3507V21.9139L61.0153 21.1016ZM49.2861 17.8216H50.5169H51.7476H57.6061H58.8369H60.0676V20.4862H58.8369H57.6061H51.7476H50.5169H49.2861V17.8216Z" fill="#F5F5F5"/>
  <path d="M79.8708 14.3508H78.64V17.8154H79.8708V14.3508Z" fill="#F5F5F5"/>
  <path d="M66.5416 20.7447V14.3508H65.3108V20.8247L66.5416 20.7447Z" fill="#F5F5F5"/>
  <path d="M68.4738 20.6216H67.52V17.8216H68.7507H69.9815H78.64V14.3508H66.5415V20.7447L68.4738 20.6216Z" fill="#F5F5F5"/>
  <path d="M68.7508 17.8216H67.52V20.6216H68.4739L68.7508 20.6031V17.8216Z" fill="#F5F5F5"/>
  <path d="M68.7508 24.0862H67.52V26.8862H68.7508V24.0862Z" fill="#F5F5F5"/>
  <path d="M77.7045 21.1077L76.4738 21.1877V24.0862H77.7045V21.1077Z" fill="#F5F5F5"/>
  <path d="M60.0677 17.8216H58.8369V20.4862H60.0677V17.8216Z" fill="#F5F5F5"/>
  <path d="M50.5169 17.8216H49.2861V20.4862H50.5169V17.8216Z" fill="#F5F5F5"/>
  <path d="M60.6769 23.9508H59.4462V26.8862H60.6769V23.9508Z" fill="#F5F5F5"/>
  <path d="M50.5169 23.9508H49.2861V26.8862H50.5169V23.9508Z" fill="#F5F5F5"/>
  <path d="M65.3108 21.9078V30.3508H66.5416V21.8278L65.3108 21.9078Z" fill="#F5F5F5"/>
  <path d="M84.203 20.6893V21.6185H85.4338V20.6093L84.203 20.6893Z" fill="#F5F5F5"/>
  <path d="M82.0361 20.8309V30.3509H83.2669V20.7509L82.0361 20.8309Z" fill="#F5F5F5"/>
  <path d="M88.7015 25.0954L88.4738 24.8185H89.7046H90.9353H92.9169H94.1476H94.5969C94.7138 24.7693 94.8307 24.7077 94.9415 24.6401C95.4276 24.3447 95.8276 23.9447 96.123 23.44C96.4246 22.9354 96.5723 22.3877 96.5723 21.797V19.8893L95.6 19.9508V21.6185H94.3692H93.1384H86.6707H85.44H84.2092V20.6893L83.2738 20.7508V30.357H84.2092V25.1077L88.7015 25.0954Z" fill="#F5F5F5"/>
  <path d="M85.4338 17.8216H84.203V19.6062L85.4338 19.5262V17.8216Z" fill="#F5F5F5"/>
  <path d="M83.2669 19.6677V14.3754H82.0361V19.7477L83.2669 19.6677Z" fill="#F5F5F5"/>
  <path d="M84.2031 19.6062V17.8216H85.4339H86.6646H93.1323H94.3631H95.5939V18.8739L96.5662 18.8124V17.6677C96.5662 17.077 96.4185 16.5293 96.1169 16.0247C95.8154 15.5201 95.4216 15.1201 94.9354 14.8247C94.4492 14.5293 93.9015 14.3816 93.3046 14.3816H83.2677V19.6739L84.2031 19.6062Z" fill="#F5F5F5"/>
  <path d="M94.3691 25.0893L93.1445 25.0954L96.5476 29.1755V30.3508H97.7784V29.1755L94.3691 25.0893Z" fill="#F5F5F5"/>
  <path d="M96.5723 21.797C96.5723 22.3877 96.4246 22.9354 96.1231 23.44C95.8215 23.9447 95.4277 24.3447 94.9415 24.64C94.8308 24.7077 94.7138 24.7631 94.5969 24.8185H95.3785L95.4831 24.9477C95.7231 24.8739 95.9508 24.7754 96.1723 24.6462C96.6585 24.3508 97.0585 23.9508 97.3538 23.4462C97.6554 22.9416 97.8031 22.3939 97.8031 21.8031V19.8154L96.5723 19.8954V21.797Z" fill="#F5F5F5"/>
  <path d="M89.9316 25.1016L94.2763 30.3508H95.507L91.1624 25.0955L89.9316 25.1016Z" fill="#F5F5F5"/>
  <path d="M94.3623 21.6185H95.5931V19.957L94.3623 20.037V21.6185Z" fill="#F5F5F5"/>
  <path d="M93.1446 25.0955H91.1631L95.5077 30.3508H96.5477V29.1755L93.1446 25.0955Z" fill="#F5F5F5"/>
  <path d="M96.1231 16.0185C96.4246 16.5231 96.5723 17.0708 96.5723 17.6616V18.8062L97.8031 18.7262V17.6616C97.8031 17.0708 97.6554 16.5231 97.3539 16.0185C97.0523 15.5139 96.6585 15.1139 96.1723 14.8185C95.6862 14.5231 95.1385 14.3754 94.5416 14.3754H93.3108C93.9077 14.3754 94.4554 14.5231 94.9416 14.8185C95.4277 15.1139 95.8216 15.5139 96.1231 16.0185Z" fill="#F5F5F5"/>
  <path d="M95.5931 18.8739V17.8216H94.3623V18.9539L95.5931 18.8739Z" fill="#F5F5F5"/>
  <path d="M88.7015 25.1016V25.0955L84.203 25.1078V30.3508H85.4338V25.1078L88.7015 25.1016Z" fill="#F5F5F5"/>
  <path d="M93.31 25.0893H93.1377H94.3685L94.2515 24.9478C93.95 25.0401 93.6423 25.0893 93.31 25.0893Z" fill="#F5F5F5"/>
  <path d="M94.5969 24.8185C94.4862 24.8678 94.3692 24.9108 94.2523 24.9478L94.3692 25.0893H94.5416C94.8739 25.0893 95.1877 25.0401 95.4831 24.9478L95.3785 24.8185H94.5969Z" fill="#F5F5F5"/>
  <path d="M91.1568 25.0955L90.9291 24.8185H89.6984L89.9322 25.0955H91.1568Z" fill="#F5F5F5"/>
  <path d="M93.3107 25.0893C93.643 25.0893 93.9569 25.0401 94.2523 24.9478L94.1476 24.8185H92.9169L93.1384 25.0893H93.3107Z" fill="#F5F5F5"/>
  <path d="M93.1384 25.0893L92.9169 24.8185H90.9292L91.1569 25.0955L93.1384 25.0893Z" fill="#F5F5F5"/>
  <path d="M93.1386 25.087L91.1571 25.0917L91.1571 25.0979L93.1387 25.0932L93.1386 25.087Z" fill="#F5F5F5"/>
  <path d="M62.4369 28.7077C62.7384 28.2031 62.8861 27.6554 62.8861 27.0647V23.7539C62.8861 23.3847 62.8123 23.0154 62.6646 22.6462C62.5846 22.4493 62.4984 22.2708 62.4 22.0985L61.2123 22.1724C61.2923 22.32 61.3661 22.4739 61.4338 22.64C61.5815 23.0093 61.6553 23.3785 61.6553 23.7477V27.0585C61.6553 27.6493 61.5076 28.197 61.2061 28.7016C60.9046 29.2062 60.5107 29.6062 60.0246 29.9016C59.5384 30.197 58.9907 30.3447 58.3938 30.3447H59.6246C60.2215 30.3447 60.7692 30.197 61.2553 29.9016C61.7415 29.6124 62.1353 29.2124 62.4369 28.7077Z" fill="#F5F5F5"/>
  <path d="M47.2369 14.3508H47.12V14.5108L47.2369 14.3508Z" fill="#F5F5F5"/>
  <path d="M46.0056 14.3508H45.8887V14.5108L46.0056 14.3508Z" fill="#F5F5F5"/>
  <path d="M38.8178 22.5293L44.7747 14.3508H43.1439L38.2147 20.6647L37.5993 19.877L36.9839 20.6647L36.3685 19.877L35.7532 20.6647L30.8055 14.3508H29.2178L35.3285 22.757L38.8178 22.5293Z" fill="#F5F5F5"/>
  <path d="M28.3631 14.3508H27.9877L28.3631 14.8739V14.3508Z" fill="#F5F5F5"/>
  <path d="M38.2154 20.6647L43.1446 14.3508H41.9138L37.6 19.877L38.2154 20.6647Z" fill="#F5F5F5"/>
  <path d="M36.3692 19.877L32.0369 14.3508H30.8062L35.7538 20.6647L36.3692 19.877Z" fill="#F5F5F5"/>
  <path d="M27.1323 17.8216V14.8739L26.7569 14.3508H25.9015V17.8216H27.1323Z" fill="#F5F5F5"/>
  <path d="M27.1323 26.8862H25.9015V30.3508H27.1323V26.8862Z" fill="#F5F5F5"/>
  <path d="M89.7923 24.7081L88.8408 25.4888L88.8447 25.4935L89.7962 24.7129L89.7923 24.7081Z" fill="#F5F5F5"/>
  <path d="M91.023 24.7081L90.0715 25.4888L90.0754 25.4935L91.0269 24.7129L91.023 24.7081Z" fill="#F5F5F5"/>
  <path d="M89.6984 24.8185H88.4677L88.7015 25.0955H89.9323L89.6984 24.8185Z" fill="#F5F5F5"/>
  <path d="M94.5969 24.8185H94.1477L94.2523 24.9478C94.3692 24.9108 94.4862 24.8678 94.5969 24.8185Z" fill="#F5F5F5"/>
  <path d="M92.9138 24.4571L91.3916 25.7256L91.3955 25.7304L92.9178 24.4618L92.9138 24.4571Z" fill="#F5F5F5"/>
  <path d="M91.1633 25.0941L89.9325 25.097L89.9325 25.1031L91.1633 25.1002L91.1633 25.0941Z" fill="#F5F5F5"/>
  <path d="M94.3755 25.0879L93.1448 25.0909L93.1448 25.097L94.3756 25.0941L94.3755 25.0879Z" fill="#F5F5F5"/>
  <path d="M89.9319 25.1003L88.7012 25.1032L88.7012 25.1094L89.932 25.1064L89.9319 25.1003Z" fill="#F5F5F5"/>
  <path d="M94.9784 19.9939L97.6061 19.8154L97.3476 21.68H94.8861L94.9784 19.9939Z" fill="#F5F5F5"/>
  <path d="M89.6984 24.8185L90.5907 25.8955H94.9353L93.7538 24.3262L89.6984 24.8185Z" fill="#F5F5F5"/>
  <path d="M65.2553 51.1878C65.0338 51.1878 64.8061 51.1447 64.5661 51.0647C64.3261 50.9785 64.1169 50.837 63.9323 50.6278C63.7538 50.4432 63.6615 50.2647 63.6615 50.0985C63.6615 49.9939 63.6984 49.8893 63.7661 49.7847C63.8338 49.6801 63.9138 49.5755 63.9938 49.4709C64.1723 49.2432 64.5169 48.9355 65.0153 48.5539C65.5138 48.1724 66.0861 47.7416 66.7261 47.2616L65.883 48.0739C65.803 48.1539 65.7292 48.277 65.6553 48.4309C65.5877 48.5847 65.5877 48.6216 65.6677 48.5416C65.8461 48.3139 66.2707 47.9262 66.9292 47.3724C67.5877 46.8247 68.2892 46.2585 69.0338 45.6739L66.72 47.2616C67.403 46.7201 68.1046 46.1847 68.8246 45.6432C69.5446 45.1016 70.203 44.6155 70.7938 44.1785C71.3846 43.7416 71.8215 43.4401 72.0984 43.2739C72.1169 43.2555 72.1477 43.2432 72.1907 43.2432C72.2707 43.2432 72.3077 43.2739 72.3077 43.3355C72.3077 43.4216 72.2277 43.4893 72.0677 43.5509C71.8277 43.6555 71.4215 43.9078 70.8492 44.3139C70.2769 44.7201 69.6738 45.1693 69.0277 45.6678C69.8092 45.1262 70.5538 44.6339 71.2677 44.1909C71.9815 43.7416 72.523 43.4093 72.9046 43.1816C72.6646 43.0155 72.2707 42.8309 71.7353 42.6216C71.1938 42.4124 70.5784 42.1601 69.8892 41.8585C69.2 41.557 68.4984 41.2001 67.7846 40.7816C67.0707 40.3693 66.4492 39.877 65.9077 39.317C65.6492 39.0709 65.4646 38.8062 65.3538 38.5232C65.243 38.2401 65.1877 37.9693 65.1877 37.6985C65.1877 37.0524 65.44 36.3878 65.9569 35.7047C66.4677 35.0216 67.1507 34.3447 68 33.6801C68.8492 33.0155 69.7784 32.3939 70.7815 31.8093C71.2615 31.5385 71.76 31.2739 72.2707 31.0155C72.7815 30.757 73.2861 30.5109 73.7907 30.2832C73.2307 30.4924 72.6769 30.7078 72.1353 30.9355C71.5938 31.1632 71.0707 31.4032 70.5723 31.6493C70.5538 31.6678 70.523 31.6801 70.48 31.6801L71.0215 31.3355C72.0861 30.7939 73.163 30.3262 74.2523 29.9201C75.3415 29.5139 76.3815 29.157 77.36 28.8432C76.7815 29.0278 76.1907 29.2432 75.5877 29.4832C74.9846 29.7232 74.3877 29.9878 73.7846 30.277C74.9661 29.8401 76.1538 29.4647 77.3477 29.1385C78.5415 28.8185 79.6492 28.5662 80.6707 28.3939C81.6923 28.2155 82.5353 28.117 83.1938 28.0985C83.5753 28.0801 83.7661 28.0247 83.7661 27.9447C83.7661 27.8832 83.6677 27.8524 83.4646 27.8524C82.7815 27.8709 81.963 27.9447 81.003 28.0678C80.043 28.1909 78.9969 28.4001 77.8769 28.6893C78.9415 28.3755 79.9446 28.1293 80.8984 27.9447C81.8523 27.7601 82.6769 27.6616 83.3784 27.6616C83.7415 27.6616 84.0677 27.6924 84.3692 27.7539C84.6277 27.797 84.8615 27.9693 85.0584 28.2709C85.2615 28.5724 85.44 28.917 85.6 29.2985C85.76 29.6862 85.8707 30.0432 85.9323 30.3755L85.963 30.2832C86.043 30.1355 86.0923 30.0062 86.1107 29.8955C86.1292 29.7785 86.1723 29.6739 86.2338 29.5693C86.2769 29.5078 86.3692 29.5878 86.5169 29.8155C86.6646 30.0432 86.8061 30.3016 86.9354 30.597C87.0646 30.8862 87.1077 31.1385 87.0707 31.3416C87.0092 31.717 86.8184 32.1232 86.4984 32.5724C86.1784 33.0216 85.803 33.4462 85.3723 33.8647C84.9415 34.2832 84.5107 34.6216 84.08 34.8924C83.6492 35.1632 83.2738 35.2985 82.9538 35.2985C82.8738 35.2985 82.7753 35.2801 82.6523 35.237C82.8923 35.0278 83.1138 34.8124 83.3107 34.5847C83.5138 34.357 83.7046 34.1293 83.883 33.9016C83.12 34.6093 82.2646 35.2801 81.3107 35.9078C80.3569 36.5416 79.4523 37.0524 78.5907 37.4462C77.7292 37.8401 77.0461 38.037 76.5477 38.037C76.2892 38.037 76.16 37.9878 76.16 37.8832C76.16 37.7785 76.2707 37.6493 76.4923 37.4955C76.7138 37.3416 76.8738 37.2309 76.9723 37.1693C77.4523 36.9416 78.0492 36.5662 78.763 36.0493C79.4769 35.5324 80.203 34.9539 80.9415 34.3201C81.68 33.6862 82.3384 33.077 82.9107 32.4801C83.483 31.8893 83.8646 31.4032 84.0677 31.0339C84.0861 30.8247 83.9384 30.6832 83.6184 30.597C83.2984 30.517 82.8738 30.4739 82.3569 30.4739C81.6984 30.4739 80.8984 30.5478 79.9692 30.6893C79.04 30.837 78.0615 31.0401 77.04 31.3109C76.0184 31.5816 75.0338 31.9016 74.0923 32.277C73.1507 32.6524 72.3323 33.077 71.6307 33.5509C71.1507 33.8216 70.6707 34.1601 70.1907 34.5601C69.7107 34.9662 69.3107 35.397 68.9907 35.8524C68.6707 36.3078 68.5107 36.757 68.5107 37.1939C68.5107 37.5447 68.6584 37.877 68.96 38.1909C69.76 38.9355 70.6277 39.5632 71.563 40.0616C72.4923 40.5601 73.3538 41.0032 74.1477 41.3847C74.9415 41.7662 75.5138 42.1662 75.8769 42.5847C75.9753 42.6893 76.0492 42.8432 76.1046 43.0524C76.1538 43.2616 76.1784 43.477 76.1784 43.7047C76.1784 44.0985 76.1169 44.4739 76 44.8247C75.8769 45.1755 75.7107 45.3724 75.4892 45.4155C73.803 45.7662 72.3692 46.197 71.1753 46.6893C69.9815 47.1878 69.0153 47.6739 68.2769 48.1539C67.5323 48.6339 66.9907 49.0278 66.64 49.3355C66.2892 49.6432 66.0923 49.7909 66.0553 49.7724C66.2153 50.0001 66.2953 50.2155 66.2953 50.4247C66.2953 50.6524 66.1969 50.837 65.9938 50.9724C65.7723 51.1201 65.5323 51.1878 65.2553 51.1878ZM77.3661 28.8555L77.4892 28.8247H77.5507L77.643 28.7939L77.7046 28.7632L77.7969 28.7324L77.8892 28.7016C77.8707 28.7016 77.8092 28.7201 77.7107 28.7632C77.6923 28.7632 77.6677 28.7755 77.6492 28.7939C77.6061 28.7939 77.5815 28.8062 77.5569 28.8247C77.5384 28.8247 77.5138 28.8309 77.4953 28.8432C77.4769 28.8555 77.4769 28.8493 77.4953 28.8247C77.4461 28.8493 77.4092 28.8555 77.3661 28.8555Z" fill="#FFED63"/>
  <path d="M80.3753 48.3201C80.2522 48.3201 80.0676 48.1785 79.8215 47.9016C79.5692 47.6185 79.323 47.3108 79.0707 46.9662C78.8184 46.6216 78.6338 46.3693 78.5168 46.2031C78.6953 45.3908 79.0153 44.5478 79.4645 43.6616C79.9138 42.7816 80.443 41.9139 81.0399 41.0585C81.643 40.2093 82.2461 39.4216 82.8553 38.6893C83.4645 37.9631 83.9999 37.3478 84.4615 36.8493C84.123 37.1201 83.7599 37.4647 83.3784 37.8954C82.9969 38.3201 82.7384 38.6093 82.5968 38.7508C82.3568 39.0031 82.1168 39.2431 81.8768 39.4831C81.6368 39.7231 81.4153 39.957 81.2184 40.1847C81.8215 39.4154 82.4184 38.7078 83.0092 38.0678C83.5999 37.4216 84.0245 36.997 84.2892 36.7939C84.3507 36.7324 84.4369 36.6585 84.5415 36.5785C84.6522 36.4924 84.7753 36.4431 84.9169 36.4247L85.1569 36.1416C85.6984 36.1601 86.2769 36.3324 86.8984 36.6585C87.5199 36.9785 88.0553 37.397 88.5045 37.9016C88.9538 38.4124 89.1938 38.9847 89.2122 39.6308C89.2122 39.717 89.1692 39.7908 89.0892 39.8647C89.0092 39.9385 88.9476 39.9016 88.9107 39.7539C88.7692 39.4401 88.6092 39.1631 88.4307 38.9108C88.2522 38.6585 88.0492 38.4616 87.8276 38.3201C87.6245 38.197 87.4153 38.1354 87.1938 38.1354C86.9538 38.1354 86.7322 38.2216 86.5353 38.3816C86.1353 38.6954 85.6553 39.157 85.1076 39.7662C84.5538 40.3816 84.0061 41.0401 83.4522 41.7416C82.8984 42.4493 82.4122 43.1324 81.9815 43.797C81.5507 44.4616 81.2553 45.0093 81.0953 45.4462C81.2184 45.2985 81.4276 45.0954 81.7292 44.8247C82.0307 44.5539 82.3507 44.277 82.6892 44.0001C83.0276 43.717 83.323 43.4831 83.563 43.2985C83.643 43.237 83.8153 43.1139 84.0738 42.9231C84.3322 42.7385 84.6092 42.5416 84.8984 42.3324C85.1876 42.1231 85.4215 41.9693 85.6061 41.8647C85.6061 41.9078 85.4892 42.0185 85.2615 42.2093C85.0276 42.3939 84.7569 42.6031 84.4369 42.8308C84.1169 43.0585 83.8215 43.2678 83.5507 43.4524C83.2799 43.637 83.1138 43.7662 83.0522 43.8278C82.8307 44.037 82.5784 44.277 82.283 44.5416C81.9938 44.8124 81.7292 45.0585 81.4892 45.2862C81.2492 45.5139 81.0892 45.6801 81.0092 45.7847C80.9661 45.8708 80.9599 45.9201 80.9784 45.9385C80.9968 45.957 81.0399 45.9262 81.1015 45.8462C81.2799 45.5754 81.5507 45.2862 81.9138 44.9724C82.2768 44.6585 82.6707 44.3447 83.1015 44.0247C83.5322 43.7047 83.9199 43.4093 84.2584 43.1385C84.6584 42.8247 85.0276 42.5539 85.3538 42.3139C85.6861 42.0739 85.9815 41.8524 86.2399 41.6431C86.2584 41.2062 86.4122 40.9047 86.7076 40.7385C86.9968 40.5724 87.2245 40.517 87.3845 40.5847C87.5076 40.6278 87.6922 40.7078 87.9384 40.8185C88.1907 40.9354 88.4122 41.0708 88.6153 41.2247C88.8184 41.3785 88.8738 41.5508 88.7938 41.7416C88.6522 42.0739 88.5476 42.5847 88.4799 43.2801C88.4122 43.9754 88.3753 44.6154 88.3753 45.1939C88.3753 46.0247 88.6276 46.437 89.1261 46.437C89.3845 46.437 89.7353 46.2893 90.1784 46.0001C90.3384 45.8954 90.4615 45.8462 90.5415 45.8462C90.603 45.8462 90.6338 45.877 90.6338 45.9385C90.6338 46.0247 90.5845 46.1416 90.4861 46.2954C90.3876 46.4493 90.3138 46.5478 90.2768 46.5908C90.0368 46.8616 89.7538 47.1078 89.4215 47.3231C89.0892 47.5385 88.7568 47.6493 88.4122 47.6493C88.2707 47.6493 88.1292 47.6308 87.9938 47.5878C87.8522 47.5447 87.7107 47.477 87.5753 47.3724C87.0768 47.0216 86.7199 46.4801 86.5107 45.7539C86.3015 45.0278 86.1969 44.4062 86.1969 43.8831C86.1969 43.7601 86.203 43.6431 86.2092 43.5385C86.2215 43.4339 86.2338 43.3416 86.2522 43.2554C86.0307 43.4401 85.6676 43.7601 85.1569 44.2031C84.6461 44.6524 84.0799 45.1508 83.4584 45.6985C82.8368 46.2462 82.2461 46.7631 81.6861 47.2431C81.1015 47.7416 80.6707 48.0924 80.3753 48.3201Z" fill="#FFED63"/>
  <path d="M90.1099 58.4432C90.0115 58.4432 89.8392 58.3509 89.5992 58.1663C89.5376 58.1047 89.3899 57.9755 89.1499 57.7786C88.9099 57.5816 88.6823 57.3601 88.473 57.1263C88.2638 56.8863 88.1592 56.6832 88.1592 56.517C88.1592 56.4124 88.2576 56.2093 88.4607 55.9078C88.6638 55.6063 88.9038 55.2555 89.1807 54.8616C89.5992 54.2586 90.1161 53.5324 90.7315 52.6832C91.3407 51.8339 91.9992 50.9232 92.7007 49.957C93.4023 48.9909 94.1038 48.0247 94.8053 47.0586C95.5069 46.0924 96.1653 45.1878 96.7746 44.3509C97.3838 43.5078 97.9069 42.7816 98.3376 42.1724C98.7684 41.557 99.0638 41.1263 99.2238 40.8801C99.2669 40.8186 99.193 40.8986 99.0146 41.1139C98.8361 41.3293 98.6023 41.6124 98.3253 41.957C98.0423 42.3016 97.7776 42.6401 97.5315 42.9847C97.2792 43.3293 97.1069 43.5816 97.0084 43.7478C97.0269 43.6432 97.15 43.4339 97.3715 43.1263C97.593 42.8124 97.8453 42.4616 98.1407 42.0678C98.4299 41.6739 98.7007 41.3109 98.953 40.9786C99.2053 40.6463 99.3653 40.4186 99.4515 40.2955C98.91 40.917 98.2761 41.5878 97.5438 42.3016C96.8115 43.0155 96.0607 43.7293 95.2915 44.437C94.5223 45.1447 93.8084 45.8032 93.1561 46.4124C92.5038 47.0278 91.9869 47.5386 91.6053 47.9509C91.1069 47.7847 90.75 47.5078 90.5407 47.1263C90.3315 46.7447 90.2269 46.3509 90.2269 45.957C90.2269 45.7293 90.2576 45.5201 90.3192 45.3355C90.5407 44.8555 90.8792 44.2401 91.3407 43.4832C91.8023 42.7263 92.2946 41.9386 92.8115 41.1324C93.3346 40.3201 93.8146 39.5693 94.2515 38.8739C94.6946 38.1786 95.0146 37.6555 95.2115 37.2986C95.15 37.1939 95.0392 37.2739 94.8792 37.5324C94.7192 37.7909 94.5407 38.1109 94.3376 38.4986C94.1346 38.8863 93.9438 39.2247 93.7653 39.5263C93.5869 39.8278 93.4638 39.9693 93.4023 39.9447C93.4023 39.9263 93.4823 39.7601 93.6423 39.4463C93.8023 39.1324 93.9869 38.7755 94.1961 38.3693C94.4053 37.9632 94.59 37.6063 94.75 37.2924C94.91 36.9786 94.99 36.8124 94.99 36.7939C94.9469 36.6893 94.91 36.5909 94.873 36.4986C94.83 36.4063 94.8115 36.3263 94.8115 36.2647C94.8115 36.0555 94.953 35.9509 95.23 35.9509C95.3715 35.9509 95.5623 35.9816 95.8023 36.0432C95.9438 36.0616 96.1592 36.1232 96.4484 36.2155C96.7376 36.3078 97.0146 36.4616 97.273 36.6647C97.5315 36.8739 97.6607 37.1447 97.6607 37.477C97.6607 37.7047 97.593 37.9324 97.4515 38.1601C97.2115 38.4493 96.9223 38.8616 96.5776 39.3909C96.2392 39.9201 95.8884 40.4801 95.5253 41.0709C95.1623 41.6616 94.8423 42.2093 94.5653 42.7078C94.2823 43.2063 94.0853 43.5693 93.9623 43.797C94.3253 43.5078 94.8115 43.0401 95.433 42.3939C96.0546 41.7478 96.7253 41.0278 97.4453 40.2278C98.1653 39.4278 98.873 38.6524 99.5623 37.9078C100.251 37.1632 100.848 36.5601 101.353 36.0986C101.655 36.2216 102.011 36.3878 102.436 36.597C102.855 36.8063 103.199 37.0216 103.458 37.2493C103.716 37.477 103.765 37.7047 103.605 37.9324C102.922 38.8863 102.325 39.6863 101.802 40.3324C101.279 40.9786 100.775 41.6063 100.282 42.2155C99.79 42.8309 99.2238 43.5693 98.5838 44.4432C98.0238 45.2124 97.4638 46.0063 96.8976 46.8247C96.3376 47.6432 95.7838 48.4616 95.2423 49.2678C94.5838 50.2647 93.9623 51.2186 93.3776 52.1355C92.7992 53.0463 92.2453 53.9078 91.7223 54.7201C91.7407 54.6155 91.8946 54.3139 92.19 53.8155C92.4792 53.317 92.8238 52.7386 93.23 52.0863C93.63 51.4339 94.0238 50.7939 94.4176 50.1724C94.8053 49.5509 95.1315 49.0278 95.3961 48.6155C95.6546 48.197 95.7776 48.0001 95.7592 48.0247C95.7407 48.0432 95.6115 48.2216 95.3838 48.5539C95.15 48.8863 94.8792 49.2924 94.5592 49.7663C94.2392 50.2463 93.9376 50.7139 93.6546 51.1693C93.3715 51.6247 93.1561 52.0001 92.9961 52.2893C92.7376 52.7693 92.4607 53.2432 92.1715 53.7232C91.8823 54.2032 91.6484 54.597 91.4823 54.9232C91.31 55.2432 91.2669 55.4278 91.3469 55.4709C91.6484 55.3478 91.9192 55.2863 92.1592 55.2863C92.4792 55.2863 92.7007 55.3786 92.8176 55.5693C92.8976 55.6739 92.9346 55.7663 92.9346 55.8524C92.9346 55.9324 92.8423 55.9693 92.6638 55.9447C92.5469 55.9263 92.3253 56.0493 92.0176 56.3201C91.71 56.5909 91.4392 56.8616 91.2238 57.1324C91.0207 57.4032 90.8423 57.6863 90.6823 57.9878C90.5223 58.2893 90.3315 58.4432 90.1099 58.4432Z" fill="#FFED63"/>
  <path d="M105.323 44.0247C105.692 44.4493 106.018 44.8616 106.307 45.2555C106.689 45.7601 106.892 46.2586 106.911 46.7324C106.831 46.757 106.757 46.7632 106.683 46.7632C106.615 46.7632 106.529 46.7632 106.431 46.7632C106.012 46.7632 105.551 46.7016 105.064 46.5786C104.572 46.4555 104.129 46.3016 103.741 46.1232C103.347 45.9509 103.083 45.7663 102.941 45.5816C102.603 45.1447 102.344 44.9293 102.16 44.9293H102.154C102.061 44.9355 102.012 45.0155 102.012 45.1755C102.012 45.354 102.055 45.557 102.154 45.7909C102.209 45.9386 102.283 46.0924 102.375 46.2647C102.572 46.597 102.929 46.9724 103.44 47.3847C103.951 47.8032 104.498 48.154 105.077 48.4432C105.661 48.7386 106.141 48.8801 106.523 48.8801C106.621 48.8801 106.775 48.794 106.984 48.6155C107.2 48.4432 107.415 48.234 107.649 47.994C107.877 47.754 108.08 47.5201 108.246 47.2924C108.418 47.0647 108.504 46.8863 108.504 46.7632C108.504 46.474 108.363 46.0616 108.086 45.5324C107.803 45.0032 107.464 44.4186 107.058 43.7724C106.658 43.1324 106.271 42.5109 105.889 41.9078C105.766 41.6801 105.711 41.4586 105.711 41.2493C105.711 40.714 106.018 40.2155 106.64 39.754C107.261 39.2986 107.944 38.9355 108.683 38.6647C109.064 38.5232 109.44 38.4001 109.809 38.2955C110.184 38.1909 110.511 38.1355 110.787 38.1355C111.071 38.1355 111.267 38.197 111.384 38.3201C111.464 38.4063 111.507 38.517 111.507 38.6647C111.477 38.7632 111.434 38.8616 111.384 38.9786C111.298 39.157 111.187 39.3663 111.046 39.6001C110.812 39.9755 110.547 40.357 110.246 40.757C109.944 41.1509 109.649 41.4955 109.347 41.797C109.046 42.0986 108.794 42.314 108.597 42.437C108.554 42.4555 108.492 42.517 108.4 42.6216C108.307 42.7263 108.264 42.8124 108.264 42.874C108.264 42.9786 108.357 43.0278 108.535 43.0278C108.892 43.0278 109.378 42.794 109.994 42.3263C110.523 41.9201 110.984 41.4524 111.384 40.9109C111.452 40.8309 111.507 40.7447 111.569 40.6586C111.52 40.8001 111.458 40.9355 111.384 41.0647C111.292 41.237 111.181 41.3909 111.058 41.5324C111.157 41.6124 111.261 41.6309 111.384 41.6001C111.489 41.5632 111.606 41.4893 111.735 41.3786C112.006 41.1263 112.258 40.7878 112.504 40.3509C112.744 39.914 112.874 39.5078 112.892 39.1324C112.892 38.9909 112.855 38.8063 112.787 38.5909C112.714 38.3693 112.64 38.1724 112.56 38.0001C112.48 37.8216 112.431 37.754 112.412 37.797C112.394 37.877 112.381 37.957 112.381 38.0309C112.381 38.1047 112.363 38.1909 112.32 38.2955C112.32 38.314 112.314 38.3324 112.289 38.357C112.234 38.0001 112.123 37.6063 111.975 37.157C111.827 36.7078 111.661 36.4432 111.477 36.3632L111.384 36.3324L110.966 36.1786C111.071 36.1786 111.107 36.154 111.089 36.1109C111.071 36.074 111.027 36.0432 110.966 36.0186C110.849 36.0001 110.72 35.9816 110.578 35.9755C110.437 35.9632 110.289 35.957 110.129 35.957C109.446 35.957 108.658 36.0616 107.766 36.2709C106.874 36.474 106.031 36.8493 105.231 37.3909C105.187 37.4093 105.138 37.4463 105.077 37.5016C105.015 37.5509 104.997 37.5755 105.015 37.5755H105.046C105.329 37.4093 105.631 37.2555 105.951 37.1078C106.271 36.9663 106.591 36.8432 106.911 36.7386C106.775 36.8001 106.634 36.8678 106.498 36.9416V36.9478C106.455 36.9663 106.412 36.9909 106.369 37.0155C106.191 37.1201 106.012 37.2247 105.827 37.3293C105.126 37.7847 104.535 38.2955 104.055 38.8555C103.575 39.4155 103.335 40.0063 103.335 40.6278C103.335 41.0832 103.464 41.5201 103.723 41.9386C104.086 42.517 104.511 43.0893 105.003 43.6493C105.114 43.7724 105.218 43.8955 105.323 44.0186V44.0247Z" fill="#FFED63"/>
  <defs>
    <linearGradient id="paint0_linear_137_362" x1="14.0633" y1="17.6462" x2="15.42" y2="17.6462" gradientUnits="userSpaceOnUse">
      <stop stop-color="#DD11D6"/>
      <stop offset="1" stop-color="#03B6D5"/>
    </linearGradient>
    <linearGradient id="paint1_linear_137_362" x1="91.7715" y1="63.9339" x2="104.662" y2="63.9339" gradientUnits="userSpaceOnUse">
      <stop stop-color="#DD11D6"/>
      <stop offset="1" stop-color="#03B6D5"/>
    </linearGradient>
    <linearGradient id="paint2_linear_137_362" x1="16.4873" y1="44.5461" x2="86.7783" y2="44.5461" gradientUnits="userSpaceOnUse">
      <stop stop-color="#DD11D6"/>
      <stop offset="1" stop-color="#03B6D5"/>
    </linearGradient>
    <linearGradient id="paint3_linear_137_362" x1="11.8272" y1="18.1992" x2="111.734" y2="18.1992" gradientUnits="userSpaceOnUse">
      <stop stop-color="#DD11D6"/>
      <stop offset="1" stop-color="#03B6D5"/>
    </linearGradient>
  </defs>
</svg>