<svg width="102" height="202" viewBox="0 0 102 202" fill="none" xmlns="http://www.w3.org/2000/svg">
<rect x="0.333496" width="101.667" height="202" rx="16" fill="url(#paint0_linear_39_2102)"/>
<g clip-path="url(#clip0_39_2102)">
<path fill-rule="evenodd" clip-rule="evenodd" d="M51.0007 84.8334C41.7957 84.8334 34.334 92.295 34.334 101.5C34.334 110.705 41.7957 118.167 51.0007 118.167C60.2057 118.167 67.6673 110.705 67.6673 101.5C67.6673 92.295 60.2057 84.8334 51.0007 84.8334ZM43.1157 98.9C48.5157 97.3934 53.9573 98.1517 58.6723 100.19C59.0774 100.361 59.5336 100.365 59.9417 100.201C60.3498 100.038 60.6766 99.7193 60.851 99.3156C61.0253 98.9119 61.0331 98.4557 60.8726 98.0463C60.7121 97.637 60.3963 97.3076 59.994 97.13C54.7106 94.8467 48.484 93.9417 42.219 95.69C41.7998 95.8146 41.4464 96.0989 41.2349 96.4816C41.0234 96.8644 40.9708 97.3149 41.0885 97.7361C41.2061 98.1572 41.4846 98.5153 41.8638 98.733C42.243 98.9508 42.6926 99.0107 43.1157 98.9ZM43.909 103.677C48.5557 102.382 53.9023 103.192 56.8757 105.017C57.0622 105.131 57.2695 105.208 57.4857 105.242C57.7019 105.276 57.9228 105.268 58.1356 105.217C58.3485 105.166 58.5493 105.073 58.7264 104.945C58.9036 104.816 59.0537 104.654 59.1681 104.468C59.2826 104.281 59.3592 104.074 59.3936 103.857C59.4279 103.641 59.4194 103.42 59.3684 103.208C59.3174 102.995 59.2249 102.794 59.0964 102.617C58.9678 102.44 58.8056 102.29 58.619 102.175C54.7656 99.8084 48.4457 98.9517 43.014 100.467C42.5975 100.593 42.247 100.878 42.0376 101.26C41.8282 101.641 41.7764 102.09 41.8933 102.509C42.0102 102.928 42.2866 103.285 42.6633 103.503C43.0399 103.722 43.487 103.784 43.909 103.677ZM44.6273 108.267C46.5106 107.833 48.6057 107.828 50.4473 108.115C52.3473 108.408 53.7173 108.972 54.3106 109.458C54.6532 109.738 55.0929 109.87 55.533 109.826C55.9731 109.782 56.3775 109.564 56.6573 109.222C56.9371 108.879 57.0694 108.439 57.025 107.999C56.9806 107.559 56.7632 107.155 56.4207 106.875C55.149 105.837 53.0873 105.15 50.959 104.82C48.7723 104.482 46.244 104.475 43.8807 105.02C43.6611 105.063 43.4525 105.149 43.2671 105.274C43.0817 105.399 42.9233 105.56 42.8015 105.748C42.6796 105.935 42.5967 106.145 42.5578 106.366C42.5188 106.586 42.5246 106.812 42.5747 107.03C42.6248 107.248 42.7183 107.453 42.8495 107.634C42.9808 107.815 43.1471 107.968 43.3386 108.083C43.5301 108.199 43.7429 108.275 43.9643 108.306C44.1857 108.338 44.4112 108.324 44.6273 108.267Z" fill="#F5F5F5"/>
</g>
<path d="M31.773 156.112C31.4277 156.112 31.0497 156.103 30.639 156.084C30.2283 156.065 29.827 156.042 29.435 156.014C29.0523 155.986 28.7023 155.953 28.385 155.916V154.894C28.721 154.922 29.071 154.95 29.435 154.978C29.8083 155.006 30.1677 155.029 30.513 155.048C30.8677 155.067 31.1663 155.076 31.409 155.076C31.9037 155.076 32.3003 155.057 32.599 155.02C32.8977 154.973 33.1497 154.889 33.355 154.768C33.495 154.684 33.5977 154.572 33.663 154.432C33.7283 154.292 33.7657 154.129 33.775 153.942C33.7937 153.755 33.803 153.555 33.803 153.34C33.803 153.023 33.7937 152.766 33.775 152.57C33.7563 152.374 33.705 152.225 33.621 152.122C33.5463 152.01 33.4203 151.931 33.243 151.884C33.0657 151.828 32.8277 151.786 32.529 151.758L30.135 151.492C29.687 151.436 29.3277 151.343 29.057 151.212C28.7863 151.072 28.581 150.899 28.441 150.694C28.3103 150.479 28.2217 150.227 28.175 149.938C28.1283 149.639 28.105 149.308 28.105 148.944C28.105 148.356 28.1797 147.885 28.329 147.53C28.4877 147.175 28.7163 146.905 29.015 146.718C29.3137 146.531 29.673 146.41 30.093 146.354C30.5223 146.289 31.0123 146.256 31.563 146.256C31.9177 146.256 32.2817 146.265 32.655 146.284C33.0283 146.303 33.3783 146.331 33.705 146.368C34.041 146.396 34.3163 146.433 34.531 146.48V147.474C34.2883 147.437 34.0083 147.404 33.691 147.376C33.3737 147.348 33.047 147.329 32.711 147.32C32.3843 147.301 32.0717 147.292 31.773 147.292C31.2597 147.292 30.8443 147.315 30.527 147.362C30.2097 147.409 29.9577 147.493 29.771 147.614C29.5657 147.735 29.435 147.908 29.379 148.132C29.3323 148.347 29.309 148.608 29.309 148.916C29.309 149.28 29.3323 149.565 29.379 149.77C29.435 149.966 29.547 150.106 29.715 150.19C29.8923 150.265 30.1537 150.321 30.499 150.358L32.837 150.624C33.173 150.652 33.467 150.699 33.719 150.764C33.9803 150.82 34.2043 150.918 34.391 151.058C34.5777 151.198 34.7177 151.399 34.811 151.66C34.867 151.791 34.909 151.935 34.937 152.094C34.965 152.253 34.9837 152.43 34.993 152.626C35.0117 152.813 35.021 153.023 35.021 153.256C35.021 153.788 34.9697 154.231 34.867 154.586C34.7643 154.931 34.6197 155.207 34.433 155.412C34.2463 155.617 34.0177 155.771 33.747 155.874C33.4763 155.977 33.173 156.042 32.837 156.07C32.5103 156.098 32.1557 156.112 31.773 156.112ZM37.162 158.786V148.86H38.198L38.24 149.882H38.324C38.464 149.565 38.6553 149.322 38.898 149.154C39.1407 148.986 39.416 148.879 39.724 148.832C40.032 148.776 40.3493 148.748 40.676 148.748C41.1893 148.748 41.614 148.804 41.95 148.916C42.2953 149.028 42.566 149.224 42.762 149.504C42.958 149.775 43.098 150.148 43.182 150.624C43.266 151.1 43.308 151.697 43.308 152.416C43.308 153.144 43.266 153.751 43.182 154.236C43.1073 154.712 42.972 155.085 42.776 155.356C42.58 155.627 42.314 155.823 41.978 155.944C41.642 156.056 41.2173 156.112 40.704 156.112C40.3213 156.112 39.9807 156.079 39.682 156.014C39.3833 155.958 39.122 155.855 38.898 155.706C38.6833 155.557 38.5107 155.351 38.38 155.09H38.31V158.786H37.162ZM40.228 155.09C40.6573 155.09 40.998 155.062 41.25 155.006C41.5113 154.95 41.7073 154.833 41.838 154.656C41.9687 154.469 42.0573 154.203 42.104 153.858C42.1507 153.503 42.174 153.027 42.174 152.43C42.174 151.833 42.1507 151.357 42.104 151.002C42.0573 150.647 41.9687 150.381 41.838 150.204C41.7073 150.027 41.5113 149.91 41.25 149.854C40.998 149.789 40.6573 149.756 40.228 149.756C39.752 149.756 39.374 149.826 39.094 149.966C38.8233 150.097 38.6273 150.307 38.506 150.596C38.4127 150.82 38.3567 151.086 38.338 151.394C38.3193 151.702 38.31 152.047 38.31 152.43C38.31 152.822 38.3193 153.167 38.338 153.466C38.3567 153.755 38.4033 153.998 38.478 154.194C38.6087 154.521 38.814 154.754 39.094 154.894C39.374 155.025 39.752 155.09 40.228 155.09ZM48.2478 156.112C47.6598 156.112 47.1698 156.075 46.7778 156C46.3952 155.935 46.0918 155.823 45.8678 155.664C45.6438 155.505 45.4758 155.286 45.3638 155.006C45.2612 154.726 45.1958 154.376 45.1678 153.956C45.1398 153.527 45.1258 153.018 45.1258 152.43C45.1258 151.842 45.1398 151.338 45.1678 150.918C45.1958 150.489 45.2612 150.134 45.3638 149.854C45.4758 149.574 45.6438 149.355 45.8678 149.196C46.0918 149.037 46.3952 148.925 46.7778 148.86C47.1698 148.785 47.6598 148.748 48.2478 148.748C48.8452 148.748 49.3352 148.785 49.7178 148.86C50.1005 148.925 50.4038 149.037 50.6278 149.196C50.8612 149.355 51.0292 149.574 51.1318 149.854C51.2438 150.134 51.3138 150.489 51.3418 150.918C51.3698 151.338 51.3838 151.842 51.3838 152.43C51.3838 153.018 51.3698 153.527 51.3418 153.956C51.3138 154.376 51.2438 154.726 51.1318 155.006C51.0292 155.286 50.8612 155.505 50.6278 155.664C50.4038 155.823 50.1005 155.935 49.7178 156C49.3352 156.075 48.8452 156.112 48.2478 156.112ZM48.2478 155.146C48.7518 155.146 49.1392 155.113 49.4098 155.048C49.6805 154.983 49.8718 154.857 49.9838 154.67C50.1052 154.483 50.1752 154.213 50.1938 153.858C50.2218 153.494 50.2358 153.018 50.2358 152.43C50.2358 151.842 50.2218 151.371 50.1938 151.016C50.1752 150.652 50.1052 150.377 49.9838 150.19C49.8718 150.003 49.6805 149.877 49.4098 149.812C49.1392 149.747 48.7518 149.714 48.2478 149.714C47.7532 149.714 47.3658 149.747 47.0858 149.812C46.8152 149.877 46.6238 150.003 46.5118 150.19C46.3998 150.377 46.3298 150.652 46.3018 151.016C46.2738 151.371 46.2598 151.842 46.2598 152.43C46.2598 153.018 46.2738 153.494 46.3018 153.858C46.3298 154.213 46.3998 154.483 46.5118 154.67C46.6238 154.857 46.8152 154.983 47.0858 155.048C47.3658 155.113 47.7532 155.146 48.2478 155.146ZM54.0335 156V149.826H52.5915V148.86H54.0335V146.788H55.1675V148.86H56.8755V149.826H55.1675V156H54.0335ZM58.4211 146.844V145.598H59.6391V146.844H58.4211ZM58.4491 156V148.86H59.5971V156H58.4491ZM62.6198 156V149.826H61.1638V148.86H62.6198V147.726C62.6198 147.325 62.6525 146.998 62.7178 146.746C62.7831 146.485 62.8858 146.279 63.0258 146.13C63.1751 145.971 63.3665 145.855 63.5998 145.78C63.8331 145.705 64.1131 145.659 64.4398 145.64C64.7758 145.621 65.1631 145.612 65.6018 145.612V146.48C65.2191 146.48 64.9065 146.494 64.6638 146.522C64.4211 146.55 64.2345 146.601 64.1038 146.676C63.9731 146.741 63.8798 146.844 63.8238 146.984C63.7771 147.124 63.7538 147.306 63.7538 147.53V148.86H65.6018V149.826H63.7538V156H62.6198ZM69.9568 158.884C69.6861 158.884 69.4015 158.875 69.1028 158.856C68.8135 158.847 68.5335 158.833 68.2628 158.814C68.0015 158.805 67.7681 158.786 67.5628 158.758V157.848C67.8708 157.857 68.1508 157.867 68.4028 157.876C68.6641 157.895 68.9021 157.904 69.1168 157.904C69.3408 157.913 69.5415 157.918 69.7188 157.918C70.2601 157.918 70.6848 157.876 70.9928 157.792C71.3101 157.708 71.5435 157.568 71.6928 157.372C71.8421 157.185 71.9355 156.933 71.9728 156.616C72.0195 156.299 72.0428 155.911 72.0428 155.454V155.034H71.9588C71.8841 155.221 71.7581 155.393 71.5808 155.552C71.4035 155.711 71.1608 155.837 70.8528 155.93C70.5448 156.023 70.1435 156.07 69.6488 156.07C69.1261 156.07 68.7015 156.019 68.3748 155.916C68.0575 155.804 67.8148 155.636 67.6468 155.412C67.4788 155.179 67.3621 154.889 67.2968 154.544C67.2408 154.199 67.2128 153.788 67.2128 153.312V148.86H68.3608V152.906C68.3608 153.391 68.3795 153.779 68.4168 154.068C68.4541 154.357 68.5335 154.577 68.6548 154.726C68.7855 154.866 68.9675 154.959 69.2008 155.006C69.4341 155.053 69.7375 155.076 70.1108 155.076C70.5775 155.076 70.9415 155.02 71.2028 154.908C71.4641 154.787 71.6508 154.614 71.7628 154.39C71.8841 154.166 71.9588 153.9 71.9868 153.592C72.0241 153.275 72.0428 152.92 72.0428 152.528V148.86H73.1768V155.118C73.1768 155.799 73.1395 156.378 73.0648 156.854C72.9995 157.339 72.8548 157.727 72.6308 158.016C72.4161 158.315 72.0941 158.534 71.6648 158.674C71.2355 158.814 70.6661 158.884 69.9568 158.884Z" fill="#F5F5F5"/>
<defs>
<linearGradient id="paint0_linear_39_2102" x1="62.2324" y1="-49.0571" x2="72.323" y2="231.109" gradientUnits="userSpaceOnUse">
<stop stop-color="#41F5B6"/>
<stop offset="0.578589" stop-color="#53E199"/>
<stop offset="1" stop-color="#7AB55B"/>
</linearGradient>
<clipPath id="clip0_39_2102">
<rect width="40" height="40" fill="white" transform="translate(31.167 81)"/>
</clipPath>
</defs>
</svg>
