<svg width="103" height="202" viewBox="0 0 103 202" fill="none" xmlns="http://www.w3.org/2000/svg">
<rect x="0.666504" width="101.667" height="202" rx="16" fill="url(#paint0_linear_39_2097)"/>
<path d="M66.5465 88.5V106.309C68.7433 106.412 70.9342 106.535 73.1191 106.681V110.457C69.6539 110.226 66.1851 110.051 62.7142 109.931V88.5H66.5465ZM97 88.5021L92.0098 100.072L96.9988 112.946L96.9932 112.949C95.5386 112.742 94.0826 112.545 92.6253 112.358L89.8236 105.132L86.9954 111.687C85.6536 111.539 84.311 111.399 82.9675 111.268L87.8323 99.9941L83.377 88.5023H87.5227L90.0172 94.9334L92.7909 88.5021H97ZM49.5615 109.744V88.502H60.2594V92.3119H53.3938V97.2493H58.5885V101.025H53.3938V109.743L49.5615 109.744ZM35.2516 92.312V88.5018H47.1047V92.3119H43.0942V109.847C41.815 109.881 40.5373 109.92 39.2622 109.968V92.312H35.2516ZM22.1505 111.066V88.5025H32.795V92.3122H25.9823V97.4729C27.5474 97.4528 29.7728 97.4302 31.1574 97.4334V101.21C29.4243 101.188 27.468 101.234 25.9823 101.248V106.965C28.2515 106.786 30.5225 106.631 32.795 106.499V110.276C29.2427 110.481 25.6941 110.744 22.1505 111.067M14.6329 102.337L14.6327 88.5018H18.465V111.422C17.0641 111.566 15.6657 111.72 14.27 111.882L9.83212 99.1328V112.428C8.55373 112.594 7.27633 112.768 6 112.949V88.5021H9.64195L14.6329 102.337ZM76.2805 110.685V88.5021H80.113V111.001C78.837 110.887 77.56 110.782 76.2805 110.685Z" fill="#F5F5F5"/>
<path d="M31.4 156V146.368H32.632L37.63 153.746H37.686V146.368H38.848V156H37.686L32.618 148.482H32.562V156H31.4ZM44.3562 156.112C43.7776 156.112 43.2922 156.075 42.9002 156C42.5176 155.925 42.2096 155.804 41.9762 155.636C41.7429 155.459 41.5656 155.23 41.4442 154.95C41.3229 154.661 41.2436 154.311 41.2062 153.9C41.1689 153.489 41.1502 153.004 41.1502 152.444C41.1502 151.781 41.1782 151.217 41.2342 150.75C41.2902 150.274 41.4162 149.891 41.6122 149.602C41.8176 149.303 42.1349 149.089 42.5642 148.958C42.9936 148.818 43.5722 148.748 44.3002 148.748C44.8509 148.748 45.2989 148.79 45.6442 148.874C45.9989 148.958 46.2789 149.089 46.4842 149.266C46.6896 149.443 46.8389 149.681 46.9322 149.98C47.0349 150.269 47.1002 150.619 47.1282 151.03C47.1562 151.431 47.1702 151.898 47.1702 152.43V152.808H42.2842C42.2842 153.293 42.3076 153.69 42.3542 153.998C42.4009 154.306 42.4942 154.544 42.6342 154.712C42.7836 154.88 43.0122 154.997 43.3202 155.062C43.6376 155.127 44.0669 155.16 44.6082 155.16C44.8322 155.16 45.0796 155.155 45.3502 155.146C45.6209 155.127 45.8916 155.104 46.1622 155.076C46.4329 155.048 46.6756 155.02 46.8902 154.992V155.916C46.6942 155.953 46.4516 155.986 46.1622 156.014C45.8822 156.042 45.5836 156.065 45.2662 156.084C44.9582 156.103 44.6549 156.112 44.3562 156.112ZM46.0642 152.234V151.856C46.0642 151.371 46.0362 150.988 45.9802 150.708C45.9242 150.419 45.8262 150.204 45.6862 150.064C45.5556 149.915 45.3736 149.817 45.1402 149.77C44.9069 149.723 44.6176 149.7 44.2722 149.7C43.8242 149.7 43.4696 149.733 43.2082 149.798C42.9469 149.854 42.7509 149.961 42.6202 150.12C42.4896 150.279 42.4009 150.507 42.3542 150.806C42.3076 151.105 42.2842 151.501 42.2842 151.996H46.3302L46.0642 152.234ZM49.8665 156V149.826H48.4245V148.86H49.8665V146.788H51.0005V148.86H52.7085V149.826H51.0005V156H49.8665ZM54.8981 156V149.826H53.4421V148.86H54.8981V147.726C54.8981 147.325 54.9308 146.998 54.9961 146.746C55.0615 146.485 55.1641 146.279 55.3041 146.13C55.4535 145.971 55.6448 145.855 55.8781 145.78C56.1115 145.705 56.3915 145.659 56.7181 145.64C57.0541 145.621 57.4415 145.612 57.8801 145.612V146.48C57.4975 146.48 57.1848 146.494 56.9421 146.522C56.6995 146.55 56.5128 146.601 56.3821 146.676C56.2515 146.741 56.1581 146.844 56.1021 146.984C56.0555 147.124 56.0321 147.306 56.0321 147.53V148.86H57.8801V149.826H56.0321V156H54.8981ZM59.2241 156V145.598H60.3581V156H59.2241ZM62.7444 146.844V145.598H63.9624V146.844H62.7444ZM62.7724 156V148.86H63.9204V156H62.7724ZM65.543 156L68.245 152.374L65.641 148.86H66.943L68.917 151.52H69.001L70.989 148.86H72.235L69.645 152.36L72.347 156H71.031L68.959 153.228H68.875L66.803 156H65.543Z" fill="#F5F5F5"/>
<defs>
<linearGradient id="paint0_linear_39_2097" x1="62.5654" y1="-49.0571" x2="72.656" y2="231.109" gradientUnits="userSpaceOnUse">
<stop stop-color="#E06F8E"/>
<stop offset="0.578589" stop-color="#CB2854"/>
<stop offset="1" stop-color="#700D27"/>
</linearGradient>
</defs>
</svg>
