<svg width="102" height="202" viewBox="0 0 102 202" fill="none" xmlns="http://www.w3.org/2000/svg">
<rect width="101.667" height="202" rx="16" fill="url(#paint0_linear_39_2090)"/>
<g clip-path="url(#clip0_39_2090)">
<path d="M58.7888 81.02C58.7038 80.925 55.6413 81.0575 52.9763 83.95C50.3113 86.84 50.7213 90.155 50.7813 90.24C50.8413 90.325 54.5813 90.4575 56.9688 87.095C59.3563 83.7325 58.8738 81.1175 58.7888 81.02ZM67.0738 110.353C66.9538 110.113 61.2613 107.268 61.7913 101.798C62.3213 96.325 65.9788 94.825 66.0363 94.6625C66.0938 94.5 64.5438 92.6875 62.9013 91.77C61.6953 91.1231 60.3606 90.7525 58.9938 90.685C58.7238 90.6775 57.7863 90.4475 55.8588 90.975C54.5888 91.3225 51.7263 92.4475 50.9388 92.4925C50.1488 92.5375 47.7988 91.1875 45.2713 90.83C43.6538 90.5175 41.9388 91.1575 40.7113 91.65C39.4863 92.14 37.1563 93.535 35.5263 97.2425C33.8963 100.948 34.7488 106.818 35.3588 108.643C35.9688 110.465 36.9213 113.453 38.5413 115.633C39.9813 118.093 41.8913 119.8 42.6888 120.38C43.4863 120.96 45.7363 121.345 47.2963 120.548C48.5513 119.778 50.8163 119.335 51.7113 119.368C52.6038 119.4 54.3638 119.753 56.1663 120.715C57.5938 121.208 58.9438 121.003 60.2963 120.453C61.6488 119.9 63.6063 117.805 65.8913 113.558C66.7588 111.583 67.1538 110.515 67.0738 110.353Z" fill="#F5F5F5"/>
<path d="M58.7888 81.02C58.7038 80.925 55.6413 81.0575 52.9763 83.95C50.3113 86.84 50.7213 90.155 50.7813 90.24C50.8413 90.325 54.5813 90.4575 56.9688 87.095C59.3563 83.7325 58.8738 81.1175 58.7888 81.02ZM67.0738 110.353C66.9538 110.113 61.2613 107.268 61.7913 101.798C62.3213 96.325 65.9788 94.825 66.0363 94.6625C66.0938 94.5 64.5438 92.6875 62.9013 91.77C61.6953 91.1231 60.3606 90.7525 58.9938 90.685C58.7238 90.6775 57.7863 90.4475 55.8588 90.975C54.5888 91.3225 51.7263 92.4475 50.9388 92.4925C50.1488 92.5375 47.7988 91.1875 45.2713 90.83C43.6538 90.5175 41.9388 91.1575 40.7113 91.65C39.4863 92.14 37.1563 93.535 35.5263 97.2425C33.8963 100.948 34.7488 106.818 35.3588 108.643C35.9688 110.465 36.9213 113.453 38.5413 115.633C39.9813 118.093 41.8913 119.8 42.6888 120.38C43.4863 120.96 45.7363 121.345 47.2963 120.548C48.5513 119.778 50.8163 119.335 51.7113 119.368C52.6038 119.4 54.3638 119.753 56.1663 120.715C57.5938 121.208 58.9438 121.003 60.2963 120.453C61.6488 119.9 63.6063 117.805 65.8913 113.558C66.7588 111.583 67.1538 110.515 67.0738 110.353Z" fill="#F5F5F5"/>
</g>
<path d="M32.2255 156L35.8655 146.368H37.3775L41.0035 156H39.7575L38.7635 153.368H34.4375L33.4435 156H32.2255ZM34.8015 152.318H38.3995L36.6355 147.6H36.5655L34.8015 152.318ZM42.6078 158.786V148.86H43.6438L43.6858 149.882H43.7698C43.9098 149.565 44.1011 149.322 44.3438 149.154C44.5865 148.986 44.8618 148.879 45.1698 148.832C45.4778 148.776 45.7951 148.748 46.1218 148.748C46.6351 148.748 47.0598 148.804 47.3958 148.916C47.7411 149.028 48.0118 149.224 48.2078 149.504C48.4038 149.775 48.5438 150.148 48.6278 150.624C48.7118 151.1 48.7538 151.697 48.7538 152.416C48.7538 153.144 48.7118 153.751 48.6278 154.236C48.5531 154.712 48.4178 155.085 48.2218 155.356C48.0258 155.627 47.7598 155.823 47.4238 155.944C47.0878 156.056 46.6631 156.112 46.1498 156.112C45.7671 156.112 45.4265 156.079 45.1278 156.014C44.8291 155.958 44.5678 155.855 44.3438 155.706C44.1291 155.557 43.9565 155.351 43.8258 155.09H43.7558V158.786H42.6078ZM45.6738 155.09C46.1031 155.09 46.4438 155.062 46.6958 155.006C46.9571 154.95 47.1531 154.833 47.2838 154.656C47.4145 154.469 47.5031 154.203 47.5498 153.858C47.5965 153.503 47.6198 153.027 47.6198 152.43C47.6198 151.833 47.5965 151.357 47.5498 151.002C47.5031 150.647 47.4145 150.381 47.2838 150.204C47.1531 150.027 46.9571 149.91 46.6958 149.854C46.4438 149.789 46.1031 149.756 45.6738 149.756C45.1978 149.756 44.8198 149.826 44.5398 149.966C44.2691 150.097 44.0731 150.307 43.9518 150.596C43.8585 150.82 43.8025 151.086 43.7838 151.394C43.7651 151.702 43.7558 152.047 43.7558 152.43C43.7558 152.822 43.7651 153.167 43.7838 153.466C43.8025 153.755 43.8491 153.998 43.9238 154.194C44.0545 154.521 44.2598 154.754 44.5398 154.894C44.8198 155.025 45.1978 155.09 45.6738 155.09ZM50.8656 158.786V148.86H51.9016L51.9436 149.882H52.0276C52.1676 149.565 52.359 149.322 52.6016 149.154C52.8443 148.986 53.1196 148.879 53.4276 148.832C53.7356 148.776 54.053 148.748 54.3796 148.748C54.893 148.748 55.3176 148.804 55.6536 148.916C55.999 149.028 56.2696 149.224 56.4656 149.504C56.6616 149.775 56.8016 150.148 56.8856 150.624C56.9696 151.1 57.0116 151.697 57.0116 152.416C57.0116 153.144 56.9696 153.751 56.8856 154.236C56.811 154.712 56.6756 155.085 56.4796 155.356C56.2836 155.627 56.0176 155.823 55.6816 155.944C55.3456 156.056 54.921 156.112 54.4076 156.112C54.025 156.112 53.6843 156.079 53.3856 156.014C53.087 155.958 52.8256 155.855 52.6016 155.706C52.387 155.557 52.2143 155.351 52.0836 155.09H52.0136V158.786H50.8656ZM53.9316 155.09C54.361 155.09 54.7016 155.062 54.9536 155.006C55.215 154.95 55.411 154.833 55.5416 154.656C55.6723 154.469 55.761 154.203 55.8076 153.858C55.8543 153.503 55.8776 153.027 55.8776 152.43C55.8776 151.833 55.8543 151.357 55.8076 151.002C55.761 150.647 55.6723 150.381 55.5416 150.204C55.411 150.027 55.215 149.91 54.9536 149.854C54.7016 149.789 54.361 149.756 53.9316 149.756C53.4556 149.756 53.0776 149.826 52.7976 149.966C52.527 150.097 52.331 150.307 52.2096 150.596C52.1163 150.82 52.0603 151.086 52.0416 151.394C52.023 151.702 52.0136 152.047 52.0136 152.43C52.0136 152.822 52.023 153.167 52.0416 153.466C52.0603 153.755 52.107 153.998 52.1816 154.194C52.3123 154.521 52.5176 154.754 52.7976 154.894C53.0776 155.025 53.4556 155.09 53.9316 155.09ZM59.1234 156V145.598H60.2714V156H59.1234ZM65.5901 156.112C65.0115 156.112 64.5261 156.075 64.1341 156C63.7515 155.925 63.4435 155.804 63.2101 155.636C62.9768 155.459 62.7995 155.23 62.6781 154.95C62.5568 154.661 62.4775 154.311 62.4401 153.9C62.4028 153.489 62.3841 153.004 62.3841 152.444C62.3841 151.781 62.4121 151.217 62.4681 150.75C62.5241 150.274 62.6501 149.891 62.8461 149.602C63.0515 149.303 63.3688 149.089 63.7981 148.958C64.2275 148.818 64.8061 148.748 65.5341 148.748C66.0848 148.748 66.5328 148.79 66.8781 148.874C67.2328 148.958 67.5128 149.089 67.7181 149.266C67.9235 149.443 68.0728 149.681 68.1661 149.98C68.2688 150.269 68.3341 150.619 68.3621 151.03C68.3901 151.431 68.4041 151.898 68.4041 152.43V152.808H63.5181C63.5181 153.293 63.5415 153.69 63.5881 153.998C63.6348 154.306 63.7281 154.544 63.8681 154.712C64.0175 154.88 64.2461 154.997 64.5541 155.062C64.8715 155.127 65.3008 155.16 65.8421 155.16C66.0661 155.16 66.3135 155.155 66.5841 155.146C66.8548 155.127 67.1255 155.104 67.3961 155.076C67.6668 155.048 67.9095 155.02 68.1241 154.992V155.916C67.9281 155.953 67.6855 155.986 67.3961 156.014C67.1161 156.042 66.8175 156.065 66.5001 156.084C66.1921 156.103 65.8888 156.112 65.5901 156.112ZM67.2981 152.234V151.856C67.2981 151.371 67.2701 150.988 67.2141 150.708C67.1581 150.419 67.0601 150.204 66.9201 150.064C66.7895 149.915 66.6075 149.817 66.3741 149.77C66.1408 149.723 65.8515 149.7 65.5061 149.7C65.0581 149.7 64.7035 149.733 64.4421 149.798C64.1808 149.854 63.9848 149.961 63.8541 150.12C63.7235 150.279 63.6348 150.507 63.5881 150.806C63.5415 151.105 63.5181 151.501 63.5181 151.996H67.5641L67.2981 152.234Z" fill="#F5F5F5"/>
<defs>
<linearGradient id="paint0_linear_39_2090" x1="-12.9451" y1="-126.25" x2="127.308" y2="-107.794" gradientUnits="userSpaceOnUse">
<stop stop-color="#FF1CBB"/>
<stop offset="1" stop-color="#088CD9"/>
</linearGradient>
<clipPath id="clip0_39_2090">
<rect width="40" height="40" fill="white" transform="translate(30.8335 81)"/>
</clipPath>
</defs>
</svg>
