<svg width="24" height="24" viewBox="0 0 24 24" fill="none" xmlns="http://www.w3.org/2000/svg">
<path d="M18.4477 3.46942L1.79619 9.53007C1.11498 9.77801 0.76374 10.5312 1.01168 11.2124L4.15424 19.8466C4.40218 20.5278 5.15541 20.879 5.83662 20.6311L22.4881 14.5704C23.1693 14.3225 23.5206 13.5692 23.2726 12.888L20.1301 4.25393C19.8821 3.57271 19.1289 3.22148 18.4477 3.46942Z" fill="#55BB8C"/>
<path d="M13.489 15.7506C15.5326 15.0068 16.5863 12.7471 15.8425 10.7035C15.0987 8.65985 12.839 7.60614 10.7954 8.34997C8.75173 9.09379 7.69802 11.3535 8.44184 13.3971C9.18567 15.4407 11.4453 16.4945 13.489 15.7506Z" fill="#FFEB99"/>
<path d="M20.1301 4.25393L20.6306 5.62922C20.4046 6.05862 20.0264 6.3881 19.57 6.55303C19.0793 6.73163 18.5378 6.70798 18.0645 6.4873C17.5913 6.26661 17.225 5.86696 17.0464 5.37627C16.8795 4.92067 16.8887 4.41912 17.0724 3.96998L18.4477 3.46942C18.7749 3.35144 19.1354 3.36772 19.4507 3.51471C19.7659 3.6617 20.0101 3.92745 20.1301 4.25393ZM22.7721 11.5127L23.2726 12.888C23.3906 13.2152 23.3743 13.5758 23.2273 13.891C23.0803 14.2062 22.8146 14.4505 22.4881 14.5704L21.1128 15.071C20.6835 14.8449 20.354 14.4667 20.189 14.0104C20.0104 13.5197 20.0341 12.9781 20.2547 12.5049C20.4754 12.0316 20.8751 11.6654 21.3658 11.4868C21.8214 11.3198 22.3229 11.3291 22.7721 11.5127ZM4.09529 10.0901C4.27389 10.5808 4.25024 11.1223 4.02956 11.5956C3.80887 12.0689 3.40922 12.4351 2.91853 12.6137C2.46292 12.7806 1.96139 12.7714 1.51225 12.5877L1.01168 11.2124C0.893701 10.8853 0.909984 10.5247 1.05697 10.2095C1.20396 9.89425 1.46971 9.65 1.79619 9.53007L3.17148 9.0295C3.60088 9.25549 3.93036 9.63376 4.09529 10.0901ZM7.23785 18.7242C7.40478 19.1798 7.39553 19.6814 7.21191 20.1305L5.83662 20.6311C5.50943 20.749 5.14886 20.7328 4.83364 20.5858C4.51842 20.4388 4.27417 20.173 4.15424 19.8466L3.65367 18.4713C3.87971 18.0419 4.25796 17.7124 4.71428 17.5475C5.20497 17.3689 5.74652 17.3925 6.21978 17.6132C6.69304 17.8339 7.05925 18.2335 7.23785 18.7242Z" fill="#9CD2B8"/>
<path d="M11.2726 10.6205L11.8893 10.396C12.0529 10.3365 12.2334 10.3444 12.3912 10.4179C12.5489 10.4915 12.671 10.6247 12.7305 10.7883C12.7603 10.8701 12.8213 10.9367 12.9002 10.9735C12.9791 11.0102 13.0693 11.0142 13.1511 10.9844C13.2329 10.9547 13.2995 10.8936 13.3363 10.8147C13.3731 10.7359 13.377 10.6456 13.3473 10.5638C13.2282 10.2367 12.984 9.97026 12.6685 9.82314C12.353 9.67602 11.992 9.66025 11.6649 9.77932L11.5526 9.47096C11.5229 9.38917 11.4618 9.32257 11.383 9.28578C11.3041 9.249 11.2138 9.24506 11.132 9.27483C11.0503 9.3046 10.9837 9.36563 10.9469 9.44451C10.9101 9.52338 10.9062 9.61364 10.9359 9.69542L11.0482 10.0038C10.721 10.1229 10.4546 10.367 10.3075 10.6825C10.1603 10.998 10.1446 11.359 10.2636 11.6862C10.3827 12.0133 10.6268 12.2797 10.9424 12.4269C11.2579 12.574 11.6189 12.5897 11.946 12.4707L12.5627 12.2462C12.7263 12.1867 12.9068 12.1946 13.0646 12.2681C13.2223 12.3417 13.3444 12.4749 13.4039 12.6385C13.4635 12.802 13.4556 12.9825 13.382 13.1403C13.3085 13.298 13.1752 13.4201 13.0117 13.4796L12.395 13.7041C12.2314 13.7636 12.0509 13.7558 11.8931 13.6822C11.7354 13.6086 11.6133 13.4754 11.5538 13.3119C11.524 13.2301 11.463 13.1635 11.3841 13.1267C11.3052 13.0899 11.215 13.086 11.1332 13.1157C11.0514 13.1455 10.9848 13.2065 10.948 13.2854C10.9112 13.3643 10.9073 13.4545 10.937 13.5363C11.0561 13.8635 11.3003 14.1299 11.6158 14.277C11.9313 14.4241 12.2923 14.4399 12.6194 14.3208L12.7317 14.6292C12.7614 14.711 12.8225 14.7776 12.9013 14.8144C12.9802 14.8512 13.0705 14.8551 13.1523 14.8253C13.234 14.7956 13.3006 14.7345 13.3374 14.6556C13.3742 14.5768 13.3782 14.4865 13.3484 14.4047L13.2362 14.0964C13.5633 13.9773 13.8297 13.7332 13.9768 13.4177C14.124 13.1021 14.1397 12.7411 14.0207 12.414C13.9016 12.0869 13.6575 11.8204 13.3419 11.6733C13.0264 11.5262 12.6654 11.5104 12.3383 11.6295L11.7216 11.854C11.558 11.9135 11.3775 11.9056 11.2197 11.832C11.062 11.7585 10.9399 11.6253 10.8804 11.4617C10.8208 11.2981 10.8287 11.1176 10.9023 10.9599C10.9758 10.8021 11.1091 10.68 11.2726 10.6205ZM10.6831 8.04139C9.89026 8.32996 9.20079 8.84715 8.70189 9.52757C8.20299 10.208 7.91705 11.0211 7.88025 11.864C7.84345 12.7069 8.05743 13.5418 8.49513 14.2631C8.93283 14.9845 9.5746 15.5598 10.3393 15.9164C11.104 16.2729 11.9572 16.3947 12.7911 16.2664C13.625 16.138 14.4021 15.7653 15.0242 15.1953C15.6463 14.6253 16.0853 13.8836 16.2859 13.064C16.4864 12.2445 16.4394 11.3839 16.1508 10.591C15.7627 9.52874 14.9691 8.66374 13.9441 8.18577C12.9191 7.7078 11.7464 7.65587 10.6831 8.04139ZM13.3767 15.442C12.7059 15.6862 11.9776 15.726 11.2842 15.5563C10.5907 15.3866 9.96315 15.0151 9.48083 14.4887C8.99851 13.9624 8.68311 13.3048 8.5745 12.5992C8.4659 11.8936 8.56897 11.1716 8.87069 10.5246C9.17241 9.87754 9.65921 9.3345 10.2696 8.96414C10.8799 8.59377 11.5864 8.41271 12.2996 8.44385C13.0128 8.475 13.7008 8.71694 14.2766 9.13909C14.8523 9.56124 15.2899 10.1446 15.5341 10.8155C15.8605 11.7152 15.8166 12.7075 15.4121 13.5749C15.0077 14.4423 14.2757 15.1137 13.3767 15.442ZM18.3354 3.1609L1.68396 9.22154C1.27504 9.37038 0.942003 9.67555 0.758098 10.0699C0.574194 10.4643 0.55449 10.9156 0.703322 11.3245L3.84588 19.9586C3.99471 20.3675 4.29989 20.7006 4.69427 20.8845C5.08866 21.0684 5.53994 21.0881 5.94886 20.9393L22.6003 14.8786C23.0093 14.7298 23.3423 14.4246 23.5262 14.0302C23.7101 13.6358 23.7298 13.1845 23.581 12.7756L20.4384 4.14153C20.2896 3.73262 19.9844 3.39958 19.59 3.21567C19.1956 3.03177 18.7444 3.01207 18.3354 3.1609ZM1.32004 11.1001C1.23074 10.8547 1.24257 10.5839 1.35291 10.3473C1.46325 10.1107 1.66308 9.92756 1.90842 9.83827L3.13138 9.39314C3.43306 9.58324 3.6635 9.86765 3.78693 10.2022C3.93576 10.6111 3.91606 11.0624 3.73215 11.4568C3.54825 11.8511 3.21521 12.1563 2.8063 12.3052C2.4707 12.4256 2.1047 12.4319 1.76516 12.323L1.32004 11.1001ZM6.94735 19.8774L5.72439 20.3225C5.47904 20.4118 5.20827 20.4 4.97164 20.2897C4.73501 20.1793 4.5519 19.9795 4.4626 19.7342L4.01748 18.5112C4.20758 18.2095 4.49198 17.9791 4.82651 17.8556C5.23543 17.7068 5.68671 17.7265 6.0811 17.9104C6.47548 18.0943 6.78066 18.4274 6.92949 18.8363C7.04997 19.1719 7.05625 19.5379 6.94735 19.8774ZM22.9643 13.0001C23.0536 13.2455 23.0417 13.5162 22.9314 13.7529C22.821 13.9895 22.6212 14.1726 22.3759 14.2619L21.1529 14.707C20.8512 14.5169 20.6208 14.2325 20.4974 13.898C20.3485 13.4891 20.3682 13.0378 20.5521 12.6434C20.7361 12.249 21.0691 11.9438 21.478 11.795C21.8136 11.6745 22.1796 11.6682 22.5191 11.7771L22.9643 13.0001ZM22.2583 11.0605C21.9188 11.0238 21.5754 11.0641 21.2535 11.1783C20.6811 11.3866 20.2148 11.8139 19.9573 12.366C19.6999 12.9182 19.6723 13.55 19.8806 14.1224C20 14.4424 20.1899 14.7314 20.4363 14.9678L7.66398 19.6166C7.70068 19.2771 7.66043 18.9336 7.54621 18.6118C7.33785 18.0393 6.9106 17.5731 6.35846 17.3156C5.80632 17.0581 5.17452 17.0306 4.60204 17.2389C4.28209 17.3583 3.99314 17.5482 3.75665 17.7946L2.026 13.0396C2.36551 13.0763 2.70894 13.0361 3.03077 12.9219C3.60324 12.7135 4.0695 12.2863 4.32697 11.7341C4.58443 11.182 4.61202 10.5502 4.40365 9.97771C4.28429 9.65776 4.09437 9.3688 3.84801 9.13231L16.6203 4.48357C16.5836 4.82309 16.6239 5.16651 16.7381 5.48834C16.9465 6.06082 17.3737 6.52708 17.9258 6.78454C18.478 7.04201 19.1098 7.06959 19.6823 6.86123C20.0022 6.74186 20.2912 6.55195 20.5277 6.30559L22.2583 11.0605ZM20.2668 5.58896C20.0767 5.89063 19.7923 6.12108 19.4578 6.24451C19.0489 6.39334 18.5976 6.37363 18.2032 6.18973C17.8088 6.00583 17.5036 5.67278 17.3548 5.26387C17.2343 4.92827 17.2281 4.56228 17.337 4.22274L18.5599 3.77762C18.8053 3.68832 19.076 3.70014 19.3127 3.81048C19.5493 3.92083 19.7324 4.12065 19.8217 4.366L20.2668 5.58896Z" fill="#478F6C"/>
<path d="M21.0023 8.76855H3.28215C2.55722 8.76855 1.96954 9.35623 1.96954 10.0812V19.2694C1.96954 19.9943 2.55722 20.582 3.28215 20.582H21.0023C21.7272 20.582 22.3149 19.9943 22.3149 19.2694V10.0812C22.3149 9.35623 21.7272 8.76855 21.0023 8.76855Z" fill="#55BB8C"/>
<path d="M12.1422 18.6129C14.317 18.6129 16.08 16.8499 16.08 14.6751C16.08 12.5003 14.317 10.7373 12.1422 10.7373C9.96742 10.7373 8.20441 12.5003 8.20441 14.6751C8.20441 16.8499 9.96742 18.6129 12.1422 18.6129Z" fill="#FFEB99"/>
<path d="M22.3149 10.0812V11.5447C21.9557 11.8709 21.4875 12.0512 21.0023 12.0501C20.4801 12.0501 19.9793 11.8426 19.6101 11.4734C19.2408 11.1041 19.0334 10.6033 19.0334 10.0812C19.0323 9.59592 19.2125 9.12778 19.5387 8.76855H21.0023C21.3501 8.76959 21.6834 8.90822 21.9293 9.15415C22.1752 9.40009 22.3139 9.73335 22.3149 10.0812ZM22.3149 17.8058V19.2694C22.3139 19.6172 22.1752 19.9504 21.9293 20.1964C21.6834 20.4423 21.3501 20.5809 21.0023 20.582H19.5387C19.2126 20.2227 19.0324 19.7546 19.0334 19.2694C19.0334 18.7472 19.2408 18.2464 19.6101 17.8772C19.9793 17.5079 20.4801 17.3005 21.0023 17.3005C21.4875 17.2994 21.9557 17.4796 22.3149 17.8058ZM5.25105 10.0812C5.25105 10.6033 5.04361 11.1041 4.67437 11.4734C4.30513 11.8426 3.80433 12.0501 3.28215 12.0501C2.79692 12.0511 2.3288 11.8709 1.96954 11.5447V10.0812C1.97058 9.73335 2.10921 9.40009 2.35514 9.15415C2.60108 8.90822 2.93434 8.76959 3.28215 8.76855H4.7457C5.07191 9.12778 5.25215 9.59592 5.25105 10.0812ZM5.25105 19.2694C5.25209 19.7546 5.07186 20.2227 4.7457 20.582H3.28215C2.93434 20.5809 2.60108 20.4423 2.35514 20.1964C2.10921 19.9504 1.97058 19.6172 1.96954 19.2694V17.8058C2.3288 17.4797 2.79692 17.2994 3.28215 17.3005C3.80433 17.3005 4.30513 17.5079 4.67437 17.8772C5.04361 18.2464 5.25105 18.7472 5.25105 19.2694Z" fill="#9CD2B8"/>
<path d="M11.814 13.0345H12.4703C12.6444 13.0345 12.8113 13.1037 12.9344 13.2268C13.0575 13.3498 13.1266 13.5168 13.1266 13.6908C13.1266 13.7779 13.1612 13.8613 13.2228 13.9229C13.2843 13.9844 13.3678 14.019 13.4548 14.019C13.5418 14.019 13.6253 13.9844 13.6868 13.9229C13.7484 13.8613 13.7829 13.7779 13.7829 13.6908C13.7829 13.3427 13.6446 13.0089 13.3985 12.7627C13.1523 12.5165 12.8185 12.3782 12.4703 12.3782V12.0501C12.4703 11.9631 12.4358 11.8796 12.3742 11.8181C12.3127 11.7565 12.2292 11.7219 12.1422 11.7219C12.0552 11.7219 11.9717 11.7565 11.9101 11.8181C11.8486 11.8796 11.814 11.9631 11.814 12.0501V12.3782C11.4659 12.3782 11.132 12.5165 10.8859 12.7627C10.6397 13.0089 10.5014 13.3427 10.5014 13.6908C10.5014 14.039 10.6397 14.3728 10.8859 14.619C11.132 14.8652 11.4659 15.0034 11.814 15.0034H12.4703C12.6444 15.0034 12.8113 15.0726 12.9344 15.1957C13.0575 15.3188 13.1266 15.4857 13.1266 15.6597C13.1266 15.8338 13.0575 16.0007 12.9344 16.1238C12.8113 16.2469 12.6444 16.316 12.4703 16.316H11.814C11.64 16.316 11.473 16.2469 11.35 16.1238C11.2269 16.0007 11.1577 15.8338 11.1577 15.6597C11.1577 15.5727 11.1232 15.4893 11.0616 15.4277C11.0001 15.3662 10.9166 15.3316 10.8296 15.3316C10.7426 15.3316 10.6591 15.3662 10.5975 15.4277C10.536 15.4893 10.5014 15.5727 10.5014 15.6597C10.5014 16.0079 10.6397 16.3417 10.8859 16.5879C11.132 16.8341 11.4659 16.9724 11.814 16.9724V17.3005C11.814 17.3875 11.8486 17.471 11.9101 17.5325C11.9717 17.5941 12.0552 17.6287 12.1422 17.6287C12.2292 17.6287 12.3127 17.5941 12.3742 17.5325C12.4358 17.471 12.4703 17.3875 12.4703 17.3005V16.9724C12.8185 16.9724 13.1523 16.8341 13.3985 16.5879C13.6446 16.3417 13.7829 16.0079 13.7829 15.6597C13.7829 15.3116 13.6446 14.9778 13.3985 14.7316C13.1523 14.4854 12.8185 14.3471 12.4703 14.3471H11.814C11.64 14.3471 11.473 14.278 11.35 14.1549C11.2269 14.0318 11.1577 13.8649 11.1577 13.6908C11.1577 13.5168 11.2269 13.3498 11.35 13.2268C11.473 13.1037 11.64 13.0345 11.814 13.0345ZM12.1422 10.4093C11.2985 10.4093 10.4737 10.6595 9.77214 11.1283C9.07061 11.597 8.52383 12.2633 8.20095 13.0428C7.87807 13.8223 7.79359 14.68 7.95819 15.5075C8.1228 16.3351 8.52909 17.0952 9.12569 17.6918C9.7223 18.2884 10.4824 18.6947 11.3099 18.8593C12.1375 19.0239 12.9952 18.9394 13.7747 18.6165C14.5542 18.2936 15.2205 17.7469 15.6892 17.0453C16.158 16.3438 16.4081 15.519 16.4081 14.6753C16.4068 13.5443 15.9569 12.4601 15.1571 11.6603C14.3574 10.8606 13.2732 10.4107 12.1422 10.4093ZM12.1422 18.285C11.4283 18.285 10.7304 18.0733 10.1368 17.6766C9.54316 17.28 9.0805 16.7162 8.80729 16.0567C8.53409 15.3971 8.4626 14.6713 8.60188 13.9711C8.74116 13.2709 9.08495 12.6277 9.58977 12.1229C10.0946 11.6181 10.7378 11.2743 11.438 11.135C12.1382 10.9957 12.864 11.0672 13.5235 11.3404C14.1831 11.6136 14.7469 12.0763 15.1435 12.6699C15.5401 13.2635 15.7518 13.9614 15.7518 14.6753C15.7508 15.6323 15.3702 16.5498 14.6934 17.2266C14.0167 17.9033 13.0992 18.2839 12.1422 18.285ZM21.0023 8.44043H3.28211C2.84696 8.44043 2.42962 8.61329 2.12192 8.921C1.81422 9.2287 1.64136 9.64603 1.64136 10.0812L1.64136 19.2694C1.64136 19.7046 1.81422 20.1219 2.12192 20.4296C2.42962 20.7373 2.84696 20.9102 3.28211 20.9102H21.0023C21.4374 20.9102 21.8547 20.7373 22.1624 20.4296C22.4701 20.1219 22.643 19.7046 22.643 19.2694V10.0812C22.643 9.64603 22.4701 9.2287 22.1624 8.921C21.8547 8.61329 21.4374 8.44043 21.0023 8.44043ZM2.29766 10.0812C2.29766 9.82009 2.40138 9.56969 2.586 9.38507C2.77062 9.20045 3.02102 9.09673 3.28211 9.09673H4.58356C4.80202 9.37854 4.9213 9.72461 4.92287 10.0812C4.92287 10.5163 4.75 10.9337 4.4423 11.2414C4.1346 11.5491 3.71727 11.7219 3.28211 11.7219C2.92554 11.7204 2.57947 11.6011 2.29766 11.3826V10.0812ZM4.58356 20.2539H3.28211C3.02102 20.2539 2.77062 20.1501 2.586 19.9655C2.40138 19.7809 2.29766 19.5305 2.29766 19.2694V17.968C2.57947 17.7495 2.92554 17.6302 3.28211 17.6287C3.71727 17.6287 4.1346 17.8015 4.4423 18.1092C4.75 18.4169 4.92287 18.8343 4.92287 19.2694C4.9213 19.626 4.80202 19.972 4.58356 20.2539ZM21.9867 19.2694C21.9867 19.5305 21.883 19.7809 21.6984 19.9655C21.5138 20.1501 21.2634 20.2539 21.0023 20.2539H19.7008C19.4824 19.972 19.3631 19.626 19.3615 19.2694C19.3615 18.8343 19.5344 18.4169 19.8421 18.1092C20.1498 17.8015 20.5671 17.6287 21.0023 17.6287C21.3588 17.6302 21.7049 17.7495 21.9867 17.968V19.2694ZM21.9867 17.2053C21.6802 17.0547 21.3437 16.9751 21.0023 16.9724C20.393 16.9724 19.8088 17.2144 19.378 17.6451C18.9472 18.0759 18.7052 18.6602 18.7052 19.2694C18.7079 19.6109 18.7876 19.9474 18.9382 20.2539H5.34618C5.4968 19.9474 5.57643 19.6109 5.57917 19.2694C5.57917 18.6602 5.33716 18.0759 4.90638 17.6451C4.47559 17.2144 3.89133 16.9724 3.28211 16.9724C2.94063 16.9751 2.60415 17.0547 2.29766 17.2053V12.1453C2.60415 12.2959 2.94063 12.3755 3.28211 12.3782C3.89133 12.3782 4.47559 12.1362 4.90638 11.7054C5.33716 11.2747 5.57917 10.6904 5.57917 10.0812C5.57643 9.7397 5.4968 9.40322 5.34618 9.09673H18.9382C18.7876 9.40322 18.7079 9.7397 18.7052 10.0812C18.7052 10.6904 18.9472 11.2747 19.378 11.7054C19.8088 12.1362 20.393 12.3782 21.0023 12.3782C21.3437 12.3755 21.6802 12.2959 21.9867 12.1453V17.2053ZM21.9867 11.3826C21.7049 11.6011 21.3588 11.7204 21.0023 11.7219C20.5671 11.7219 20.1498 11.5491 19.8421 11.2414C19.5344 10.9337 19.3615 10.5163 19.3615 10.0812C19.3631 9.72461 19.4824 9.37854 19.7008 9.09673H21.0023C21.2634 9.09673 21.5138 9.20045 21.6984 9.38507C21.883 9.56969 21.9867 9.82009 21.9867 10.0812V11.3826Z" fill="#478F6C"/>
</svg>
