<svg width="594" height="40" viewBox="0 0 594 40" fill="none" xmlns="http://www.w3.org/2000/svg">
<rect x="1" y="5" width="43.4565" height="30" rx="15" fill="#610057"/>
<rect x="1" y="5" width="43.4565" height="30" rx="15" stroke="#FFED63" stroke-width="2"/>
<path d="M21.2733 27V16.28L18.5933 17.44V15.06L22.1733 13.24H24.1133V27H21.2733Z" fill="white"/>
<rect x="177" y="5" width="39.5602" height="30" rx="15" fill="#610057"/>
<rect x="177" y="5" width="39.5602" height="30" rx="15" stroke="#FFED63" stroke-width="2"/>
<path d="M191.067 27V25.2C191.067 24.4267 191.087 23.7733 191.127 23.24C191.167 22.6933 191.26 22.2333 191.407 21.86C191.567 21.4867 191.8 21.1667 192.107 20.9C192.427 20.6333 192.867 20.3867 193.427 20.16L196.587 18.88C197.013 18.6933 197.333 18.5333 197.547 18.4C197.76 18.2533 197.9 18.0733 197.967 17.86C198.033 17.6467 198.067 17.36 198.067 17C198.067 16.52 197.98 16.1667 197.807 15.94C197.647 15.7 197.36 15.5533 196.947 15.5C196.547 15.4333 195.973 15.4 195.227 15.4C194.933 15.4 194.567 15.4133 194.127 15.44C193.687 15.4667 193.227 15.5 192.747 15.54C192.267 15.58 191.8 15.6267 191.347 15.68V13.5C191.76 13.42 192.24 13.3533 192.787 13.3C193.333 13.2333 193.893 13.18 194.467 13.14C195.053 13.1 195.593 13.08 196.087 13.08C196.753 13.08 197.373 13.12 197.947 13.2C198.533 13.28 199.047 13.4467 199.487 13.7C199.927 13.9533 200.273 14.3267 200.527 14.82C200.78 15.3133 200.907 15.98 200.907 16.82C200.907 17.6467 200.813 18.3133 200.627 18.82C200.453 19.3267 200.187 19.7333 199.827 20.04C199.467 20.3467 199.02 20.6067 198.487 20.82L194.887 22.26C194.567 22.38 194.327 22.5133 194.167 22.66C194.02 22.7933 193.92 22.9733 193.867 23.2C193.827 23.4133 193.807 23.7067 193.807 24.08V24.66H200.907V27H191.067Z" fill="white"/>
<rect x="529" y="5" width="63.1429" height="30" rx="15" fill="#610057"/>
<rect x="529" y="5" width="63.1429" height="30" rx="15" stroke="#FFED63" stroke-width="2"/>
<path d="M540.589 27V24.1H533.789V22.04L538.849 13.24H541.929L536.849 21.78H540.629L541.389 18H543.409V21.78H545.249V24.1H543.409V27H540.589ZM552.619 27.16C551.592 27.16 550.745 27.1 550.079 26.98C549.412 26.8467 548.885 26.6267 548.499 26.32C548.112 26.0133 547.825 25.5933 547.639 25.06C547.452 24.5267 547.332 23.8533 547.279 23.04C547.239 22.2267 547.219 21.2533 547.219 20.12C547.219 18.9867 547.239 18.0133 547.279 17.2C547.332 16.3867 547.452 15.7133 547.639 15.18C547.825 14.6467 548.112 14.2267 548.499 13.92C548.885 13.6133 549.412 13.4 550.079 13.28C550.745 13.1467 551.592 13.08 552.619 13.08C553.659 13.08 554.512 13.1467 555.179 13.28C555.845 13.4 556.372 13.6133 556.759 13.92C557.145 14.2267 557.432 14.6467 557.619 15.18C557.805 15.7133 557.919 16.3867 557.959 17.2C558.012 18.0133 558.039 18.9867 558.039 20.12C558.039 21.2533 558.012 22.2267 557.959 23.04C557.919 23.8533 557.805 24.5267 557.619 25.06C557.432 25.5933 557.145 26.0133 556.759 26.32C556.372 26.6267 555.845 26.8467 555.179 26.98C554.512 27.1 553.659 27.16 552.619 27.16ZM552.619 24.84C553.125 24.84 553.539 24.82 553.859 24.78C554.179 24.74 554.425 24.6467 554.599 24.5C554.785 24.3533 554.919 24.1133 554.999 23.78C555.092 23.4467 555.152 22.9867 555.179 22.4C555.205 21.8 555.219 21.04 555.219 20.12C555.219 19.2 555.205 18.4467 555.179 17.86C555.152 17.26 555.092 16.7933 554.999 16.46C554.919 16.1267 554.785 15.8867 554.599 15.74C554.425 15.5933 554.179 15.5 553.859 15.46C553.539 15.42 553.132 15.4 552.639 15.4C552.145 15.4 551.732 15.42 551.399 15.46C551.079 15.5 550.825 15.5933 550.639 15.74C550.465 15.8867 550.332 16.1267 550.239 16.46C550.159 16.7933 550.105 17.26 550.079 17.86C550.052 18.4467 550.039 19.2 550.039 20.12C550.039 21.04 550.052 21.8 550.079 22.4C550.105 22.9867 550.159 23.4467 550.239 23.78C550.332 24.1133 550.465 24.3533 550.639 24.5C550.825 24.6467 551.079 24.74 551.399 24.78C551.719 24.82 552.125 24.84 552.619 24.84ZM565.939 27.16C564.912 27.16 564.065 27.1 563.399 26.98C562.732 26.8467 562.205 26.6267 561.819 26.32C561.432 26.0133 561.145 25.5933 560.959 25.06C560.772 24.5267 560.652 23.8533 560.599 23.04C560.559 22.2267 560.539 21.2533 560.539 20.12C560.539 18.9867 560.559 18.0133 560.599 17.2C560.652 16.3867 560.772 15.7133 560.959 15.18C561.145 14.6467 561.432 14.2267 561.819 13.92C562.205 13.6133 562.732 13.4 563.399 13.28C564.065 13.1467 564.912 13.08 565.939 13.08C566.979 13.08 567.832 13.1467 568.499 13.28C569.165 13.4 569.692 13.6133 570.079 13.92C570.465 14.2267 570.752 14.6467 570.939 15.18C571.125 15.7133 571.239 16.3867 571.279 17.2C571.332 18.0133 571.359 18.9867 571.359 20.12C571.359 21.2533 571.332 22.2267 571.279 23.04C571.239 23.8533 571.125 24.5267 570.939 25.06C570.752 25.5933 570.465 26.0133 570.079 26.32C569.692 26.6267 569.165 26.8467 568.499 26.98C567.832 27.1 566.979 27.16 565.939 27.16ZM565.939 24.84C566.445 24.84 566.859 24.82 567.179 24.78C567.499 24.74 567.745 24.6467 567.919 24.5C568.105 24.3533 568.239 24.1133 568.319 23.78C568.412 23.4467 568.472 22.9867 568.499 22.4C568.525 21.8 568.539 21.04 568.539 20.12C568.539 19.2 568.525 18.4467 568.499 17.86C568.472 17.26 568.412 16.7933 568.319 16.46C568.239 16.1267 568.105 15.8867 567.919 15.74C567.745 15.5933 567.499 15.5 567.179 15.46C566.859 15.42 566.452 15.4 565.959 15.4C565.465 15.4 565.052 15.42 564.719 15.46C564.399 15.5 564.145 15.5933 563.959 15.74C563.785 15.8867 563.652 16.1267 563.559 16.46C563.479 16.7933 563.425 17.26 563.399 17.86C563.372 18.4467 563.359 19.2 563.359 20.12C563.359 21.04 563.372 21.8 563.399 22.4C563.425 22.9867 563.479 23.4467 563.559 23.78C563.652 24.1133 563.785 24.3533 563.959 24.5C564.145 24.6467 564.399 24.74 564.719 24.78C565.039 24.82 565.445 24.84 565.939 24.84ZM575.839 27L584.819 13.24H586.579L577.599 27H575.839ZM576.599 20.78C575.906 20.78 575.359 20.7267 574.959 20.62C574.559 20.5 574.266 20.3 574.079 20.02C573.892 19.7267 573.772 19.3333 573.719 18.84C573.679 18.3333 573.659 17.7 573.659 16.94C573.659 16.18 573.679 15.5533 573.719 15.06C573.772 14.5533 573.892 14.16 574.079 13.88C574.266 13.5867 574.559 13.38 574.959 13.26C575.359 13.14 575.906 13.08 576.599 13.08C577.306 13.08 577.859 13.14 578.259 13.26C578.659 13.38 578.946 13.5867 579.119 13.88C579.292 14.16 579.406 14.5533 579.459 15.06C579.512 15.5533 579.539 16.18 579.539 16.94C579.539 17.7 579.512 18.3333 579.459 18.84C579.406 19.3333 579.292 19.7267 579.119 20.02C578.946 20.3 578.659 20.5 578.259 20.62C577.859 20.7267 577.306 20.78 576.599 20.78ZM576.599 19.44C576.919 19.44 577.166 19.4267 577.339 19.4C577.512 19.36 577.639 19.2667 577.719 19.12C577.799 18.96 577.846 18.7133 577.859 18.38C577.872 18.0333 577.879 17.5533 577.879 16.94C577.879 16.3267 577.872 15.8533 577.859 15.52C577.846 15.1733 577.799 14.9267 577.719 14.78C577.639 14.62 577.512 14.5267 577.339 14.5C577.166 14.46 576.919 14.44 576.599 14.44C576.292 14.44 576.046 14.46 575.859 14.5C575.686 14.5267 575.559 14.62 575.479 14.78C575.399 14.9267 575.352 15.1733 575.339 15.52C575.326 15.8533 575.319 16.3267 575.319 16.94C575.319 17.5533 575.326 18.0333 575.339 18.38C575.352 18.7133 575.399 18.96 575.479 19.12C575.559 19.2667 575.686 19.36 575.859 19.4C576.046 19.4267 576.292 19.44 576.599 19.44ZM585.839 27.16C585.146 27.16 584.599 27.1067 584.199 27C583.799 26.88 583.506 26.68 583.319 26.4C583.132 26.1067 583.012 25.7133 582.959 25.22C582.919 24.7133 582.899 24.08 582.899 23.32C582.899 22.56 582.919 21.9333 582.959 21.44C583.012 20.9333 583.132 20.54 583.319 20.26C583.506 19.9667 583.799 19.76 584.199 19.64C584.599 19.52 585.146 19.46 585.839 19.46C586.546 19.46 587.092 19.52 587.479 19.64C587.879 19.76 588.172 19.9667 588.359 20.26C588.546 20.54 588.659 20.9333 588.699 21.44C588.752 21.9333 588.779 22.56 588.779 23.32C588.779 24.08 588.752 24.7133 588.699 25.22C588.659 25.7133 588.546 26.1067 588.359 26.4C588.172 26.68 587.879 26.88 587.479 27C587.092 27.1067 586.546 27.16 585.839 27.16ZM585.839 25.82C586.159 25.82 586.406 25.8067 586.579 25.78C586.752 25.74 586.879 25.6467 586.959 25.5C587.039 25.34 587.086 25.0933 587.099 24.76C587.112 24.4133 587.119 23.9333 587.119 23.32C587.119 22.7067 587.112 22.2333 587.099 21.9C587.086 21.5533 587.039 21.3067 586.959 21.16C586.879 21 586.752 20.9067 586.579 20.88C586.406 20.84 586.159 20.82 585.839 20.82C585.519 20.82 585.272 20.84 585.099 20.88C584.926 20.9067 584.799 21 584.719 21.16C584.652 21.3067 584.606 21.5533 584.579 21.9C584.566 22.2333 584.559 22.7067 584.559 23.32C584.559 23.9333 584.566 24.4133 584.579 24.76C584.606 25.0933 584.652 25.34 584.719 25.5C584.799 25.6467 584.926 25.74 585.099 25.78C585.272 25.8067 585.519 25.82 585.839 25.82Z" fill="white"/>
<rect x="333" y="5" width="74" height="30" rx="15" fill="#610057"/>
<rect x="333" y="5" width="74" height="30" rx="15" stroke="#FFED63" stroke-width="2"/>
<path d="M344.68 27V25.2C344.68 24.4267 344.7 23.7733 344.74 23.24C344.78 22.6933 344.873 22.2333 345.02 21.86C345.18 21.4867 345.413 21.1667 345.72 20.9C346.04 20.6333 346.48 20.3867 347.04 20.16L350.2 18.88C350.627 18.6933 350.947 18.5333 351.16 18.4C351.373 18.2533 351.513 18.0733 351.58 17.86C351.647 17.6467 351.68 17.36 351.68 17C351.68 16.52 351.593 16.1667 351.42 15.94C351.26 15.7 350.973 15.5533 350.56 15.5C350.16 15.4333 349.587 15.4 348.84 15.4C348.547 15.4 348.18 15.4133 347.74 15.44C347.3 15.4667 346.84 15.5 346.36 15.54C345.88 15.58 345.413 15.6267 344.96 15.68V13.5C345.373 13.42 345.853 13.3533 346.4 13.3C346.947 13.2333 347.507 13.18 348.08 13.14C348.667 13.1 349.207 13.08 349.7 13.08C350.367 13.08 350.987 13.12 351.56 13.2C352.147 13.28 352.66 13.4467 353.1 13.7C353.54 13.9533 353.887 14.3267 354.14 14.82C354.393 15.3133 354.52 15.98 354.52 16.82C354.52 17.6467 354.427 18.3133 354.24 18.82C354.067 19.3267 353.8 19.7333 353.44 20.04C353.08 20.3467 352.633 20.6067 352.1 20.82L348.5 22.26C348.18 22.38 347.94 22.5133 347.78 22.66C347.633 22.7933 347.533 22.9733 347.48 23.2C347.44 23.4133 347.42 23.7067 347.42 24.08V24.66H354.52V27H344.68ZM362.367 27.16C361.34 27.16 360.493 27.1 359.827 26.98C359.16 26.8467 358.633 26.6267 358.247 26.32C357.86 26.0133 357.573 25.5933 357.387 25.06C357.2 24.5267 357.08 23.8533 357.027 23.04C356.987 22.2267 356.967 21.2533 356.967 20.12C356.967 18.9867 356.987 18.0133 357.027 17.2C357.08 16.3867 357.2 15.7133 357.387 15.18C357.573 14.6467 357.86 14.2267 358.247 13.92C358.633 13.6133 359.16 13.4 359.827 13.28C360.493 13.1467 361.34 13.08 362.367 13.08C363.407 13.08 364.26 13.1467 364.927 13.28C365.593 13.4 366.12 13.6133 366.507 13.92C366.893 14.2267 367.18 14.6467 367.367 15.18C367.553 15.7133 367.667 16.3867 367.707 17.2C367.76 18.0133 367.787 18.9867 367.787 20.12C367.787 21.2533 367.76 22.2267 367.707 23.04C367.667 23.8533 367.553 24.5267 367.367 25.06C367.18 25.5933 366.893 26.0133 366.507 26.32C366.12 26.6267 365.593 26.8467 364.927 26.98C364.26 27.1 363.407 27.16 362.367 27.16ZM362.367 24.84C362.873 24.84 363.287 24.82 363.607 24.78C363.927 24.74 364.173 24.6467 364.347 24.5C364.533 24.3533 364.667 24.1133 364.747 23.78C364.84 23.4467 364.9 22.9867 364.927 22.4C364.953 21.8 364.967 21.04 364.967 20.12C364.967 19.2 364.953 18.4467 364.927 17.86C364.9 17.26 364.84 16.7933 364.747 16.46C364.667 16.1267 364.533 15.8867 364.347 15.74C364.173 15.5933 363.927 15.5 363.607 15.46C363.287 15.42 362.88 15.4 362.387 15.4C361.893 15.4 361.48 15.42 361.147 15.46C360.827 15.5 360.573 15.5933 360.387 15.74C360.213 15.8867 360.08 16.1267 359.987 16.46C359.907 16.7933 359.853 17.26 359.827 17.86C359.8 18.4467 359.787 19.2 359.787 20.12C359.787 21.04 359.8 21.8 359.827 22.4C359.853 22.9867 359.907 23.4467 359.987 23.78C360.08 24.1133 360.213 24.3533 360.387 24.5C360.573 24.6467 360.827 24.74 361.147 24.78C361.467 24.82 361.873 24.84 362.367 24.84ZM375.687 27.16C374.66 27.16 373.814 27.1 373.147 26.98C372.48 26.8467 371.954 26.6267 371.567 26.32C371.18 26.0133 370.894 25.5933 370.707 25.06C370.52 24.5267 370.4 23.8533 370.347 23.04C370.307 22.2267 370.287 21.2533 370.287 20.12C370.287 18.9867 370.307 18.0133 370.347 17.2C370.4 16.3867 370.52 15.7133 370.707 15.18C370.894 14.6467 371.18 14.2267 371.567 13.92C371.954 13.6133 372.48 13.4 373.147 13.28C373.814 13.1467 374.66 13.08 375.687 13.08C376.727 13.08 377.58 13.1467 378.247 13.28C378.914 13.4 379.44 13.6133 379.827 13.92C380.214 14.2267 380.5 14.6467 380.687 15.18C380.874 15.7133 380.987 16.3867 381.027 17.2C381.08 18.0133 381.107 18.9867 381.107 20.12C381.107 21.2533 381.08 22.2267 381.027 23.04C380.987 23.8533 380.874 24.5267 380.687 25.06C380.5 25.5933 380.214 26.0133 379.827 26.32C379.44 26.6267 378.914 26.8467 378.247 26.98C377.58 27.1 376.727 27.16 375.687 27.16ZM375.687 24.84C376.194 24.84 376.607 24.82 376.927 24.78C377.247 24.74 377.494 24.6467 377.667 24.5C377.854 24.3533 377.987 24.1133 378.067 23.78C378.16 23.4467 378.22 22.9867 378.247 22.4C378.274 21.8 378.287 21.04 378.287 20.12C378.287 19.2 378.274 18.4467 378.247 17.86C378.22 17.26 378.16 16.7933 378.067 16.46C377.987 16.1267 377.854 15.8867 377.667 15.74C377.494 15.5933 377.247 15.5 376.927 15.46C376.607 15.42 376.2 15.4 375.707 15.4C375.214 15.4 374.8 15.42 374.467 15.46C374.147 15.5 373.894 15.5933 373.707 15.74C373.534 15.8867 373.4 16.1267 373.307 16.46C373.227 16.7933 373.174 17.26 373.147 17.86C373.12 18.4467 373.107 19.2 373.107 20.12C373.107 21.04 373.12 21.8 373.147 22.4C373.174 22.9867 373.227 23.4467 373.307 23.78C373.4 24.1133 373.534 24.3533 373.707 24.5C373.894 24.6467 374.147 24.74 374.467 24.78C374.787 24.82 375.194 24.84 375.687 24.84ZM385.587 27L394.567 13.24H396.327L387.347 27H385.587ZM386.347 20.78C385.654 20.78 385.107 20.7267 384.707 20.62C384.307 20.5 384.014 20.3 383.827 20.02C383.641 19.7267 383.521 19.3333 383.467 18.84C383.427 18.3333 383.407 17.7 383.407 16.94C383.407 16.18 383.427 15.5533 383.467 15.06C383.521 14.5533 383.641 14.16 383.827 13.88C384.014 13.5867 384.307 13.38 384.707 13.26C385.107 13.14 385.654 13.08 386.347 13.08C387.054 13.08 387.607 13.14 388.007 13.26C388.407 13.38 388.694 13.5867 388.867 13.88C389.041 14.16 389.154 14.5533 389.207 15.06C389.261 15.5533 389.287 16.18 389.287 16.94C389.287 17.7 389.261 18.3333 389.207 18.84C389.154 19.3333 389.041 19.7267 388.867 20.02C388.694 20.3 388.407 20.5 388.007 20.62C387.607 20.7267 387.054 20.78 386.347 20.78ZM386.347 19.44C386.667 19.44 386.914 19.4267 387.087 19.4C387.261 19.36 387.387 19.2667 387.467 19.12C387.547 18.96 387.594 18.7133 387.607 18.38C387.621 18.0333 387.627 17.5533 387.627 16.94C387.627 16.3267 387.621 15.8533 387.607 15.52C387.594 15.1733 387.547 14.9267 387.467 14.78C387.387 14.62 387.261 14.5267 387.087 14.5C386.914 14.46 386.667 14.44 386.347 14.44C386.041 14.44 385.794 14.46 385.607 14.5C385.434 14.5267 385.307 14.62 385.227 14.78C385.147 14.9267 385.101 15.1733 385.087 15.52C385.074 15.8533 385.067 16.3267 385.067 16.94C385.067 17.5533 385.074 18.0333 385.087 18.38C385.101 18.7133 385.147 18.96 385.227 19.12C385.307 19.2667 385.434 19.36 385.607 19.4C385.794 19.4267 386.041 19.44 386.347 19.44ZM395.587 27.16C394.894 27.16 394.347 27.1067 393.947 27C393.547 26.88 393.254 26.68 393.067 26.4C392.881 26.1067 392.761 25.7133 392.707 25.22C392.667 24.7133 392.647 24.08 392.647 23.32C392.647 22.56 392.667 21.9333 392.707 21.44C392.761 20.9333 392.881 20.54 393.067 20.26C393.254 19.9667 393.547 19.76 393.947 19.64C394.347 19.52 394.894 19.46 395.587 19.46C396.294 19.46 396.841 19.52 397.227 19.64C397.627 19.76 397.921 19.9667 398.107 20.26C398.294 20.54 398.407 20.9333 398.447 21.44C398.501 21.9333 398.527 22.56 398.527 23.32C398.527 24.08 398.501 24.7133 398.447 25.22C398.407 25.7133 398.294 26.1067 398.107 26.4C397.921 26.68 397.627 26.88 397.227 27C396.841 27.1067 396.294 27.16 395.587 27.16ZM395.587 25.82C395.907 25.82 396.154 25.8067 396.327 25.78C396.501 25.74 396.627 25.6467 396.707 25.5C396.787 25.34 396.834 25.0933 396.847 24.76C396.861 24.4133 396.867 23.9333 396.867 23.32C396.867 22.7067 396.861 22.2333 396.847 21.9C396.834 21.5533 396.787 21.3067 396.707 21.16C396.627 21 396.501 20.9067 396.327 20.88C396.154 20.84 395.907 20.82 395.587 20.82C395.267 20.82 395.021 20.84 394.847 20.88C394.674 20.9067 394.547 21 394.467 21.16C394.401 21.3067 394.354 21.5533 394.327 21.9C394.314 22.2333 394.307 22.7067 394.307 23.32C394.307 23.9333 394.314 24.4133 394.327 24.76C394.354 25.0933 394.401 25.34 394.467 25.5C394.547 25.6467 394.674 25.74 394.847 25.78C395.021 25.8067 395.267 25.82 395.587 25.82Z" fill="white"/>
<path d="M230 19C229.448 19 229 19.4477 229 20C229 20.5523 229.448 21 230 21V19ZM322.707 20.7071C323.098 20.3166 323.098 19.6834 322.707 19.2929L316.343 12.9289C315.953 12.5384 315.319 12.5384 314.929 12.9289C314.538 13.3195 314.538 13.9526 314.929 14.3431L320.586 20L314.929 25.6569C314.538 26.0474 314.538 26.6805 314.929 27.0711C315.319 27.4616 315.953 27.4616 316.343 27.0711L322.707 20.7071ZM235.75 21C236.302 21 236.75 20.5523 236.75 20C236.75 19.4477 236.302 19 235.75 19V21ZM247.25 19C246.698 19 246.25 19.4477 246.25 20C246.25 20.5523 246.698 21 247.25 21V19ZM258.75 21C259.302 21 259.75 20.5523 259.75 20C259.75 19.4477 259.302 19 258.75 19V21ZM270.25 19C269.698 19 269.25 19.4477 269.25 20C269.25 20.5523 269.698 21 270.25 21V19ZM281.75 21C282.302 21 282.75 20.5523 282.75 20C282.75 19.4477 282.302 19 281.75 19V21ZM293.25 19C292.698 19 292.25 19.4477 292.25 20C292.25 20.5523 292.698 21 293.25 21V19ZM304.75 21C305.302 21 305.75 20.5523 305.75 20C305.75 19.4477 305.302 19 304.75 19V21ZM316.25 19C315.698 19 315.25 19.4477 315.25 20C315.25 20.5523 315.698 21 316.25 21V19ZM230 21H235.75V19H230V21ZM247.25 21L258.75 21V19L247.25 19V21ZM270.25 21L281.75 21V19L270.25 19V21ZM293.25 21L304.75 21V19L293.25 19V21ZM316.25 21H322V19H316.25V21Z" fill="#FF00E5"/>
<path d="M461.232 27.16C460.112 27.16 459.185 27.0933 458.452 26.96C457.732 26.8267 457.165 26.6067 456.752 26.3C456.339 25.98 456.039 25.5533 455.852 25.02C455.665 24.4733 455.545 23.8 455.492 23C455.439 22.2 455.412 21.24 455.412 20.12C455.412 19 455.439 18.04 455.492 17.24C455.545 16.44 455.665 15.7733 455.852 15.24C456.039 14.6933 456.339 14.2667 456.752 13.96C457.165 13.64 457.732 13.4133 458.452 13.28C459.185 13.1467 460.112 13.08 461.232 13.08C462.352 13.08 463.272 13.1467 463.992 13.28C464.725 13.4133 465.299 13.64 465.712 13.96C466.125 14.2667 466.425 14.6933 466.612 15.24C466.812 15.7733 466.939 16.44 466.992 17.24C467.045 18.04 467.072 19 467.072 20.12C467.072 21.24 467.045 22.2 466.992 23C466.939 23.8 466.812 24.4733 466.612 25.02C466.425 25.5533 466.125 25.98 465.712 26.3C465.299 26.6067 464.725 26.8267 463.992 26.96C463.272 27.0933 462.352 27.16 461.232 27.16ZM461.232 24.84C461.819 24.84 462.292 24.82 462.652 24.78C463.025 24.74 463.319 24.6467 463.532 24.5C463.745 24.3533 463.899 24.1133 463.992 23.78C464.099 23.4467 464.165 22.9867 464.192 22.4C464.219 21.8133 464.232 21.0533 464.232 20.12C464.232 19.1867 464.219 18.4267 464.192 17.84C464.165 17.2533 464.099 16.7933 463.992 16.46C463.899 16.1267 463.745 15.8867 463.532 15.74C463.319 15.5933 463.025 15.5 462.652 15.46C462.292 15.42 461.819 15.4 461.232 15.4C460.659 15.4 460.185 15.42 459.812 15.46C459.452 15.5 459.165 15.5933 458.952 15.74C458.739 15.8867 458.579 16.1267 458.472 16.46C458.379 16.7933 458.319 17.2533 458.292 17.84C458.265 18.4267 458.252 19.1867 458.252 20.12C458.252 21.0533 458.265 21.8133 458.292 22.4C458.319 22.9867 458.379 23.4467 458.472 23.78C458.579 24.1133 458.739 24.3533 458.952 24.5C459.165 24.6467 459.452 24.74 459.812 24.78C460.185 24.82 460.659 24.84 461.232 24.84ZM469.953 27V13.24H476.533C477.426 13.24 478.139 13.34 478.673 13.54C479.219 13.74 479.633 14.0333 479.913 14.42C480.193 14.7933 480.379 15.2533 480.473 15.8C480.579 16.3333 480.633 16.9333 480.633 17.6C480.633 18.0667 480.593 18.5667 480.513 19.1C480.433 19.6333 480.253 20.1267 479.973 20.58C479.706 21.0333 479.279 21.3667 478.693 21.58L480.893 27H477.893L475.813 21.48L476.513 21.86C476.419 21.9 476.306 21.9267 476.173 21.94C476.053 21.9533 475.913 21.96 475.753 21.96H472.793V27H469.953ZM472.793 19.66H475.393C475.953 19.66 476.393 19.6267 476.713 19.56C477.033 19.4933 477.273 19.3867 477.433 19.24C477.593 19.08 477.693 18.8733 477.733 18.62C477.773 18.3533 477.793 18.0133 477.793 17.6C477.793 17.1867 477.773 16.8467 477.733 16.58C477.693 16.3133 477.599 16.1067 477.453 15.96C477.306 15.8133 477.066 15.7067 476.733 15.64C476.413 15.5733 475.973 15.54 475.413 15.54H472.793V19.66Z" fill="white"/>
<path d="M58.5 20L162.5 20" stroke="#FF00E5" stroke-width="2" stroke-linecap="round"/>
</svg>
