<svg width="571" height="40" viewBox="0 0 571 40" fill="none" xmlns="http://www.w3.org/2000/svg">
<rect x="1" y="5" width="43.4565" height="30" rx="15" fill="#610057"/>
<rect x="1" y="5" width="43.4565" height="30" rx="15" stroke="#FFED63" stroke-width="2"/>
<path d="M21.2733 27V16.28L18.5933 17.44V15.06L22.1733 13.24H24.1133V27H21.2733Z" fill="white"/>
<rect x="160" y="5" width="39.5602" height="30" rx="15" fill="#610057"/>
<rect x="160" y="5" width="39.5602" height="30" rx="15" stroke="#FFED63" stroke-width="2"/>
<path d="M174.067 27V25.2C174.067 24.4267 174.087 23.7733 174.127 23.24C174.167 22.6933 174.26 22.2333 174.407 21.86C174.567 21.4867 174.8 21.1667 175.107 20.9C175.427 20.6333 175.867 20.3867 176.427 20.16L179.587 18.88C180.013 18.6933 180.333 18.5333 180.547 18.4C180.76 18.2533 180.9 18.0733 180.967 17.86C181.033 17.6467 181.067 17.36 181.067 17C181.067 16.52 180.98 16.1667 180.807 15.94C180.647 15.7 180.36 15.5533 179.947 15.5C179.547 15.4333 178.973 15.4 178.227 15.4C177.933 15.4 177.567 15.4133 177.127 15.44C176.687 15.4667 176.227 15.5 175.747 15.54C175.267 15.58 174.8 15.6267 174.347 15.68V13.5C174.76 13.42 175.24 13.3533 175.787 13.3C176.333 13.2333 176.893 13.18 177.467 13.14C178.053 13.1 178.593 13.08 179.087 13.08C179.753 13.08 180.373 13.12 180.947 13.2C181.533 13.28 182.047 13.4467 182.487 13.7C182.927 13.9533 183.273 14.3267 183.527 14.82C183.78 15.3133 183.907 15.98 183.907 16.82C183.907 17.6467 183.813 18.3133 183.627 18.82C183.453 19.3267 183.187 19.7333 182.827 20.04C182.467 20.3467 182.02 20.6067 181.487 20.82L177.887 22.26C177.567 22.38 177.327 22.5133 177.167 22.66C177.02 22.7933 176.92 22.9733 176.867 23.2C176.827 23.4133 176.807 23.7067 176.807 24.08V24.66H183.907V27H174.067Z" fill="white"/>
<rect x="506" y="5" width="63.1429" height="30" rx="15" fill="#610057"/>
<rect x="506" y="5" width="63.1429" height="30" rx="15" stroke="#FFED63" stroke-width="2"/>
<path d="M517.589 27V24.1H510.789V22.04L515.849 13.24H518.929L513.849 21.78H517.629L518.389 18H520.409V21.78H522.249V24.1H520.409V27H517.589ZM529.619 27.16C528.592 27.16 527.745 27.1 527.079 26.98C526.412 26.8467 525.885 26.6267 525.499 26.32C525.112 26.0133 524.825 25.5933 524.639 25.06C524.452 24.5267 524.332 23.8533 524.279 23.04C524.239 22.2267 524.219 21.2533 524.219 20.12C524.219 18.9867 524.239 18.0133 524.279 17.2C524.332 16.3867 524.452 15.7133 524.639 15.18C524.825 14.6467 525.112 14.2267 525.499 13.92C525.885 13.6133 526.412 13.4 527.079 13.28C527.745 13.1467 528.592 13.08 529.619 13.08C530.659 13.08 531.512 13.1467 532.179 13.28C532.845 13.4 533.372 13.6133 533.759 13.92C534.145 14.2267 534.432 14.6467 534.619 15.18C534.805 15.7133 534.919 16.3867 534.959 17.2C535.012 18.0133 535.039 18.9867 535.039 20.12C535.039 21.2533 535.012 22.2267 534.959 23.04C534.919 23.8533 534.805 24.5267 534.619 25.06C534.432 25.5933 534.145 26.0133 533.759 26.32C533.372 26.6267 532.845 26.8467 532.179 26.98C531.512 27.1 530.659 27.16 529.619 27.16ZM529.619 24.84C530.125 24.84 530.539 24.82 530.859 24.78C531.179 24.74 531.425 24.6467 531.599 24.5C531.785 24.3533 531.919 24.1133 531.999 23.78C532.092 23.4467 532.152 22.9867 532.179 22.4C532.205 21.8 532.219 21.04 532.219 20.12C532.219 19.2 532.205 18.4467 532.179 17.86C532.152 17.26 532.092 16.7933 531.999 16.46C531.919 16.1267 531.785 15.8867 531.599 15.74C531.425 15.5933 531.179 15.5 530.859 15.46C530.539 15.42 530.132 15.4 529.639 15.4C529.145 15.4 528.732 15.42 528.399 15.46C528.079 15.5 527.825 15.5933 527.639 15.74C527.465 15.8867 527.332 16.1267 527.239 16.46C527.159 16.7933 527.105 17.26 527.079 17.86C527.052 18.4467 527.039 19.2 527.039 20.12C527.039 21.04 527.052 21.8 527.079 22.4C527.105 22.9867 527.159 23.4467 527.239 23.78C527.332 24.1133 527.465 24.3533 527.639 24.5C527.825 24.6467 528.079 24.74 528.399 24.78C528.719 24.82 529.125 24.84 529.619 24.84ZM542.939 27.16C541.912 27.16 541.065 27.1 540.399 26.98C539.732 26.8467 539.205 26.6267 538.819 26.32C538.432 26.0133 538.145 25.5933 537.959 25.06C537.772 24.5267 537.652 23.8533 537.599 23.04C537.559 22.2267 537.539 21.2533 537.539 20.12C537.539 18.9867 537.559 18.0133 537.599 17.2C537.652 16.3867 537.772 15.7133 537.959 15.18C538.145 14.6467 538.432 14.2267 538.819 13.92C539.205 13.6133 539.732 13.4 540.399 13.28C541.065 13.1467 541.912 13.08 542.939 13.08C543.979 13.08 544.832 13.1467 545.499 13.28C546.165 13.4 546.692 13.6133 547.079 13.92C547.465 14.2267 547.752 14.6467 547.939 15.18C548.125 15.7133 548.239 16.3867 548.279 17.2C548.332 18.0133 548.359 18.9867 548.359 20.12C548.359 21.2533 548.332 22.2267 548.279 23.04C548.239 23.8533 548.125 24.5267 547.939 25.06C547.752 25.5933 547.465 26.0133 547.079 26.32C546.692 26.6267 546.165 26.8467 545.499 26.98C544.832 27.1 543.979 27.16 542.939 27.16ZM542.939 24.84C543.445 24.84 543.859 24.82 544.179 24.78C544.499 24.74 544.745 24.6467 544.919 24.5C545.105 24.3533 545.239 24.1133 545.319 23.78C545.412 23.4467 545.472 22.9867 545.499 22.4C545.525 21.8 545.539 21.04 545.539 20.12C545.539 19.2 545.525 18.4467 545.499 17.86C545.472 17.26 545.412 16.7933 545.319 16.46C545.239 16.1267 545.105 15.8867 544.919 15.74C544.745 15.5933 544.499 15.5 544.179 15.46C543.859 15.42 543.452 15.4 542.959 15.4C542.465 15.4 542.052 15.42 541.719 15.46C541.399 15.5 541.145 15.5933 540.959 15.74C540.785 15.8867 540.652 16.1267 540.559 16.46C540.479 16.7933 540.425 17.26 540.399 17.86C540.372 18.4467 540.359 19.2 540.359 20.12C540.359 21.04 540.372 21.8 540.399 22.4C540.425 22.9867 540.479 23.4467 540.559 23.78C540.652 24.1133 540.785 24.3533 540.959 24.5C541.145 24.6467 541.399 24.74 541.719 24.78C542.039 24.82 542.445 24.84 542.939 24.84ZM552.839 27L561.819 13.24H563.579L554.599 27H552.839ZM553.599 20.78C552.906 20.78 552.359 20.7267 551.959 20.62C551.559 20.5 551.266 20.3 551.079 20.02C550.892 19.7267 550.772 19.3333 550.719 18.84C550.679 18.3333 550.659 17.7 550.659 16.94C550.659 16.18 550.679 15.5533 550.719 15.06C550.772 14.5533 550.892 14.16 551.079 13.88C551.266 13.5867 551.559 13.38 551.959 13.26C552.359 13.14 552.906 13.08 553.599 13.08C554.306 13.08 554.859 13.14 555.259 13.26C555.659 13.38 555.946 13.5867 556.119 13.88C556.292 14.16 556.406 14.5533 556.459 15.06C556.512 15.5533 556.539 16.18 556.539 16.94C556.539 17.7 556.512 18.3333 556.459 18.84C556.406 19.3333 556.292 19.7267 556.119 20.02C555.946 20.3 555.659 20.5 555.259 20.62C554.859 20.7267 554.306 20.78 553.599 20.78ZM553.599 19.44C553.919 19.44 554.166 19.4267 554.339 19.4C554.512 19.36 554.639 19.2667 554.719 19.12C554.799 18.96 554.846 18.7133 554.859 18.38C554.872 18.0333 554.879 17.5533 554.879 16.94C554.879 16.3267 554.872 15.8533 554.859 15.52C554.846 15.1733 554.799 14.9267 554.719 14.78C554.639 14.62 554.512 14.5267 554.339 14.5C554.166 14.46 553.919 14.44 553.599 14.44C553.292 14.44 553.046 14.46 552.859 14.5C552.686 14.5267 552.559 14.62 552.479 14.78C552.399 14.9267 552.352 15.1733 552.339 15.52C552.326 15.8533 552.319 16.3267 552.319 16.94C552.319 17.5533 552.326 18.0333 552.339 18.38C552.352 18.7133 552.399 18.96 552.479 19.12C552.559 19.2667 552.686 19.36 552.859 19.4C553.046 19.4267 553.292 19.44 553.599 19.44ZM562.839 27.16C562.146 27.16 561.599 27.1067 561.199 27C560.799 26.88 560.506 26.68 560.319 26.4C560.132 26.1067 560.012 25.7133 559.959 25.22C559.919 24.7133 559.899 24.08 559.899 23.32C559.899 22.56 559.919 21.9333 559.959 21.44C560.012 20.9333 560.132 20.54 560.319 20.26C560.506 19.9667 560.799 19.76 561.199 19.64C561.599 19.52 562.146 19.46 562.839 19.46C563.546 19.46 564.092 19.52 564.479 19.64C564.879 19.76 565.172 19.9667 565.359 20.26C565.546 20.54 565.659 20.9333 565.699 21.44C565.752 21.9333 565.779 22.56 565.779 23.32C565.779 24.08 565.752 24.7133 565.699 25.22C565.659 25.7133 565.546 26.1067 565.359 26.4C565.172 26.68 564.879 26.88 564.479 27C564.092 27.1067 563.546 27.16 562.839 27.16ZM562.839 25.82C563.159 25.82 563.406 25.8067 563.579 25.78C563.752 25.74 563.879 25.6467 563.959 25.5C564.039 25.34 564.086 25.0933 564.099 24.76C564.112 24.4133 564.119 23.9333 564.119 23.32C564.119 22.7067 564.112 22.2333 564.099 21.9C564.086 21.5533 564.039 21.3067 563.959 21.16C563.879 21 563.752 20.9067 563.579 20.88C563.406 20.84 563.159 20.82 562.839 20.82C562.519 20.82 562.272 20.84 562.099 20.88C561.926 20.9067 561.799 21 561.719 21.16C561.652 21.3067 561.606 21.5533 561.579 21.9C561.566 22.2333 561.559 22.7067 561.559 23.32C561.559 23.9333 561.566 24.4133 561.579 24.76C561.606 25.0933 561.652 25.34 561.719 25.5C561.799 25.6467 561.926 25.74 562.099 25.78C562.272 25.8067 562.519 25.82 562.839 25.82Z" fill="white"/>
<rect x="316" y="5" width="74" height="30" rx="15" fill="#610057"/>
<rect x="316" y="5" width="74" height="30" rx="15" stroke="#FFED63" stroke-width="2"/>
<path d="M327.68 27V25.2C327.68 24.4267 327.7 23.7733 327.74 23.24C327.78 22.6933 327.873 22.2333 328.02 21.86C328.18 21.4867 328.413 21.1667 328.72 20.9C329.04 20.6333 329.48 20.3867 330.04 20.16L333.2 18.88C333.627 18.6933 333.947 18.5333 334.16 18.4C334.373 18.2533 334.513 18.0733 334.58 17.86C334.647 17.6467 334.68 17.36 334.68 17C334.68 16.52 334.593 16.1667 334.42 15.94C334.26 15.7 333.973 15.5533 333.56 15.5C333.16 15.4333 332.587 15.4 331.84 15.4C331.547 15.4 331.18 15.4133 330.74 15.44C330.3 15.4667 329.84 15.5 329.36 15.54C328.88 15.58 328.413 15.6267 327.96 15.68V13.5C328.373 13.42 328.853 13.3533 329.4 13.3C329.947 13.2333 330.507 13.18 331.08 13.14C331.667 13.1 332.207 13.08 332.7 13.08C333.367 13.08 333.987 13.12 334.56 13.2C335.147 13.28 335.66 13.4467 336.1 13.7C336.54 13.9533 336.887 14.3267 337.14 14.82C337.393 15.3133 337.52 15.98 337.52 16.82C337.52 17.6467 337.427 18.3133 337.24 18.82C337.067 19.3267 336.8 19.7333 336.44 20.04C336.08 20.3467 335.633 20.6067 335.1 20.82L331.5 22.26C331.18 22.38 330.94 22.5133 330.78 22.66C330.633 22.7933 330.533 22.9733 330.48 23.2C330.44 23.4133 330.42 23.7067 330.42 24.08V24.66H337.52V27H327.68ZM345.367 27.16C344.34 27.16 343.493 27.1 342.827 26.98C342.16 26.8467 341.633 26.6267 341.247 26.32C340.86 26.0133 340.573 25.5933 340.387 25.06C340.2 24.5267 340.08 23.8533 340.027 23.04C339.987 22.2267 339.967 21.2533 339.967 20.12C339.967 18.9867 339.987 18.0133 340.027 17.2C340.08 16.3867 340.2 15.7133 340.387 15.18C340.573 14.6467 340.86 14.2267 341.247 13.92C341.633 13.6133 342.16 13.4 342.827 13.28C343.493 13.1467 344.34 13.08 345.367 13.08C346.407 13.08 347.26 13.1467 347.927 13.28C348.593 13.4 349.12 13.6133 349.507 13.92C349.893 14.2267 350.18 14.6467 350.367 15.18C350.553 15.7133 350.667 16.3867 350.707 17.2C350.76 18.0133 350.787 18.9867 350.787 20.12C350.787 21.2533 350.76 22.2267 350.707 23.04C350.667 23.8533 350.553 24.5267 350.367 25.06C350.18 25.5933 349.893 26.0133 349.507 26.32C349.12 26.6267 348.593 26.8467 347.927 26.98C347.26 27.1 346.407 27.16 345.367 27.16ZM345.367 24.84C345.873 24.84 346.287 24.82 346.607 24.78C346.927 24.74 347.173 24.6467 347.347 24.5C347.533 24.3533 347.667 24.1133 347.747 23.78C347.84 23.4467 347.9 22.9867 347.927 22.4C347.953 21.8 347.967 21.04 347.967 20.12C347.967 19.2 347.953 18.4467 347.927 17.86C347.9 17.26 347.84 16.7933 347.747 16.46C347.667 16.1267 347.533 15.8867 347.347 15.74C347.173 15.5933 346.927 15.5 346.607 15.46C346.287 15.42 345.88 15.4 345.387 15.4C344.893 15.4 344.48 15.42 344.147 15.46C343.827 15.5 343.573 15.5933 343.387 15.74C343.213 15.8867 343.08 16.1267 342.987 16.46C342.907 16.7933 342.853 17.26 342.827 17.86C342.8 18.4467 342.787 19.2 342.787 20.12C342.787 21.04 342.8 21.8 342.827 22.4C342.853 22.9867 342.907 23.4467 342.987 23.78C343.08 24.1133 343.213 24.3533 343.387 24.5C343.573 24.6467 343.827 24.74 344.147 24.78C344.467 24.82 344.873 24.84 345.367 24.84ZM358.687 27.16C357.66 27.16 356.814 27.1 356.147 26.98C355.48 26.8467 354.954 26.6267 354.567 26.32C354.18 26.0133 353.894 25.5933 353.707 25.06C353.52 24.5267 353.4 23.8533 353.347 23.04C353.307 22.2267 353.287 21.2533 353.287 20.12C353.287 18.9867 353.307 18.0133 353.347 17.2C353.4 16.3867 353.52 15.7133 353.707 15.18C353.894 14.6467 354.18 14.2267 354.567 13.92C354.954 13.6133 355.48 13.4 356.147 13.28C356.814 13.1467 357.66 13.08 358.687 13.08C359.727 13.08 360.58 13.1467 361.247 13.28C361.914 13.4 362.44 13.6133 362.827 13.92C363.214 14.2267 363.5 14.6467 363.687 15.18C363.874 15.7133 363.987 16.3867 364.027 17.2C364.08 18.0133 364.107 18.9867 364.107 20.12C364.107 21.2533 364.08 22.2267 364.027 23.04C363.987 23.8533 363.874 24.5267 363.687 25.06C363.5 25.5933 363.214 26.0133 362.827 26.32C362.44 26.6267 361.914 26.8467 361.247 26.98C360.58 27.1 359.727 27.16 358.687 27.16ZM358.687 24.84C359.194 24.84 359.607 24.82 359.927 24.78C360.247 24.74 360.494 24.6467 360.667 24.5C360.854 24.3533 360.987 24.1133 361.067 23.78C361.16 23.4467 361.22 22.9867 361.247 22.4C361.274 21.8 361.287 21.04 361.287 20.12C361.287 19.2 361.274 18.4467 361.247 17.86C361.22 17.26 361.16 16.7933 361.067 16.46C360.987 16.1267 360.854 15.8867 360.667 15.74C360.494 15.5933 360.247 15.5 359.927 15.46C359.607 15.42 359.2 15.4 358.707 15.4C358.214 15.4 357.8 15.42 357.467 15.46C357.147 15.5 356.894 15.5933 356.707 15.74C356.534 15.8867 356.4 16.1267 356.307 16.46C356.227 16.7933 356.174 17.26 356.147 17.86C356.12 18.4467 356.107 19.2 356.107 20.12C356.107 21.04 356.12 21.8 356.147 22.4C356.174 22.9867 356.227 23.4467 356.307 23.78C356.4 24.1133 356.534 24.3533 356.707 24.5C356.894 24.6467 357.147 24.74 357.467 24.78C357.787 24.82 358.194 24.84 358.687 24.84ZM368.587 27L377.567 13.24H379.327L370.347 27H368.587ZM369.347 20.78C368.654 20.78 368.107 20.7267 367.707 20.62C367.307 20.5 367.014 20.3 366.827 20.02C366.641 19.7267 366.521 19.3333 366.467 18.84C366.427 18.3333 366.407 17.7 366.407 16.94C366.407 16.18 366.427 15.5533 366.467 15.06C366.521 14.5533 366.641 14.16 366.827 13.88C367.014 13.5867 367.307 13.38 367.707 13.26C368.107 13.14 368.654 13.08 369.347 13.08C370.054 13.08 370.607 13.14 371.007 13.26C371.407 13.38 371.694 13.5867 371.867 13.88C372.041 14.16 372.154 14.5533 372.207 15.06C372.261 15.5533 372.287 16.18 372.287 16.94C372.287 17.7 372.261 18.3333 372.207 18.84C372.154 19.3333 372.041 19.7267 371.867 20.02C371.694 20.3 371.407 20.5 371.007 20.62C370.607 20.7267 370.054 20.78 369.347 20.78ZM369.347 19.44C369.667 19.44 369.914 19.4267 370.087 19.4C370.261 19.36 370.387 19.2667 370.467 19.12C370.547 18.96 370.594 18.7133 370.607 18.38C370.621 18.0333 370.627 17.5533 370.627 16.94C370.627 16.3267 370.621 15.8533 370.607 15.52C370.594 15.1733 370.547 14.9267 370.467 14.78C370.387 14.62 370.261 14.5267 370.087 14.5C369.914 14.46 369.667 14.44 369.347 14.44C369.041 14.44 368.794 14.46 368.607 14.5C368.434 14.5267 368.307 14.62 368.227 14.78C368.147 14.9267 368.101 15.1733 368.087 15.52C368.074 15.8533 368.067 16.3267 368.067 16.94C368.067 17.5533 368.074 18.0333 368.087 18.38C368.101 18.7133 368.147 18.96 368.227 19.12C368.307 19.2667 368.434 19.36 368.607 19.4C368.794 19.4267 369.041 19.44 369.347 19.44ZM378.587 27.16C377.894 27.16 377.347 27.1067 376.947 27C376.547 26.88 376.254 26.68 376.067 26.4C375.881 26.1067 375.761 25.7133 375.707 25.22C375.667 24.7133 375.647 24.08 375.647 23.32C375.647 22.56 375.667 21.9333 375.707 21.44C375.761 20.9333 375.881 20.54 376.067 20.26C376.254 19.9667 376.547 19.76 376.947 19.64C377.347 19.52 377.894 19.46 378.587 19.46C379.294 19.46 379.841 19.52 380.227 19.64C380.627 19.76 380.921 19.9667 381.107 20.26C381.294 20.54 381.407 20.9333 381.447 21.44C381.501 21.9333 381.527 22.56 381.527 23.32C381.527 24.08 381.501 24.7133 381.447 25.22C381.407 25.7133 381.294 26.1067 381.107 26.4C380.921 26.68 380.627 26.88 380.227 27C379.841 27.1067 379.294 27.16 378.587 27.16ZM378.587 25.82C378.907 25.82 379.154 25.8067 379.327 25.78C379.501 25.74 379.627 25.6467 379.707 25.5C379.787 25.34 379.834 25.0933 379.847 24.76C379.861 24.4133 379.867 23.9333 379.867 23.32C379.867 22.7067 379.861 22.2333 379.847 21.9C379.834 21.5533 379.787 21.3067 379.707 21.16C379.627 21 379.501 20.9067 379.327 20.88C379.154 20.84 378.907 20.82 378.587 20.82C378.267 20.82 378.021 20.84 377.847 20.88C377.674 20.9067 377.547 21 377.467 21.16C377.401 21.3067 377.354 21.5533 377.327 21.9C377.314 22.2333 377.307 22.7067 377.307 23.32C377.307 23.9333 377.314 24.4133 377.327 24.76C377.354 25.0933 377.401 25.34 377.467 25.5C377.547 25.6467 377.674 25.74 377.847 25.78C378.021 25.8067 378.267 25.82 378.587 25.82Z" fill="white"/>
<path d="M213 19C212.448 19 212 19.4477 212 20C212 20.5523 212.448 21 213 21V19ZM305.707 20.7071C306.098 20.3166 306.098 19.6834 305.707 19.2929L299.343 12.9289C298.953 12.5384 298.319 12.5384 297.929 12.9289C297.538 13.3195 297.538 13.9526 297.929 14.3431L303.586 20L297.929 25.6569C297.538 26.0474 297.538 26.6805 297.929 27.0711C298.319 27.4616 298.953 27.4616 299.343 27.0711L305.707 20.7071ZM218.75 21C219.302 21 219.75 20.5523 219.75 20C219.75 19.4477 219.302 19 218.75 19V21ZM230.25 19C229.698 19 229.25 19.4477 229.25 20C229.25 20.5523 229.698 21 230.25 21V19ZM241.75 21C242.302 21 242.75 20.5523 242.75 20C242.75 19.4477 242.302 19 241.75 19V21ZM253.25 19C252.698 19 252.25 19.4477 252.25 20C252.25 20.5523 252.698 21 253.25 21V19ZM264.75 21C265.302 21 265.75 20.5523 265.75 20C265.75 19.4477 265.302 19 264.75 19V21ZM276.25 19C275.698 19 275.25 19.4477 275.25 20C275.25 20.5523 275.698 21 276.25 21V19ZM287.75 21C288.302 21 288.75 20.5523 288.75 20C288.75 19.4477 288.302 19 287.75 19V21ZM299.25 19C298.698 19 298.25 19.4477 298.25 20C298.25 20.5523 298.698 21 299.25 21V19ZM213 21H218.75V19H213V21ZM230.25 21L241.75 21V19L230.25 19V21ZM253.25 21L264.75 21V19L253.25 19V21ZM276.25 21L287.75 21V19L276.25 19V21ZM299.25 21H305V19H299.25V21Z" fill="#FF00E5"/>
<path d="M444.007 27.16C442.887 27.16 441.961 27.0933 441.227 26.96C440.507 26.8267 439.941 26.6067 439.527 26.3C439.114 25.98 438.814 25.5533 438.627 25.02C438.441 24.4733 438.321 23.8 438.267 23C438.214 22.2 438.187 21.24 438.187 20.12C438.187 19 438.214 18.04 438.267 17.24C438.321 16.44 438.441 15.7733 438.627 15.24C438.814 14.6933 439.114 14.2667 439.527 13.96C439.941 13.64 440.507 13.4133 441.227 13.28C441.961 13.1467 442.887 13.08 444.007 13.08C445.127 13.08 446.047 13.1467 446.767 13.28C447.501 13.4133 448.074 13.64 448.487 13.96C448.901 14.2667 449.201 14.6933 449.387 15.24C449.587 15.7733 449.714 16.44 449.767 17.24C449.821 18.04 449.847 19 449.847 20.12C449.847 21.24 449.821 22.2 449.767 23C449.714 23.8 449.587 24.4733 449.387 25.02C449.201 25.5533 448.901 25.98 448.487 26.3C448.074 26.6067 447.501 26.8267 446.767 26.96C446.047 27.0933 445.127 27.16 444.007 27.16ZM444.007 24.84C444.594 24.84 445.067 24.82 445.427 24.78C445.801 24.74 446.094 24.6467 446.307 24.5C446.521 24.3533 446.674 24.1133 446.767 23.78C446.874 23.4467 446.941 22.9867 446.967 22.4C446.994 21.8133 447.007 21.0533 447.007 20.12C447.007 19.1867 446.994 18.4267 446.967 17.84C446.941 17.2533 446.874 16.7933 446.767 16.46C446.674 16.1267 446.521 15.8867 446.307 15.74C446.094 15.5933 445.801 15.5 445.427 15.46C445.067 15.42 444.594 15.4 444.007 15.4C443.434 15.4 442.961 15.42 442.587 15.46C442.227 15.5 441.941 15.5933 441.727 15.74C441.514 15.8867 441.354 16.1267 441.247 16.46C441.154 16.7933 441.094 17.2533 441.067 17.84C441.041 18.4267 441.027 19.1867 441.027 20.12C441.027 21.0533 441.041 21.8133 441.067 22.4C441.094 22.9867 441.154 23.4467 441.247 23.78C441.354 24.1133 441.514 24.3533 441.727 24.5C441.941 24.6467 442.227 24.74 442.587 24.78C442.961 24.82 443.434 24.84 444.007 24.84ZM458.068 27.16C457.095 27.16 456.281 27.1 455.628 26.98C454.975 26.86 454.448 26.6667 454.048 26.4C453.648 26.1333 453.341 25.76 453.128 25.28C452.928 24.8 452.788 24.2 452.708 23.48C452.641 22.7467 452.608 21.8733 452.608 20.86V13.24H455.448V21.58C455.448 22.2867 455.468 22.86 455.508 23.3C455.561 23.7267 455.661 24.0533 455.808 24.28C455.968 24.5067 456.228 24.66 456.588 24.74C456.948 24.8067 457.441 24.84 458.068 24.84C458.695 24.84 459.181 24.8067 459.528 24.74C459.888 24.66 460.148 24.5067 460.308 24.28C460.468 24.0533 460.568 23.7267 460.608 23.3C460.648 22.86 460.668 22.2867 460.668 21.58V13.24H463.508V20.86C463.508 21.8733 463.468 22.7467 463.388 23.48C463.321 24.2 463.188 24.8 462.988 25.28C462.788 25.76 462.488 26.1333 462.088 26.4C461.688 26.6667 461.161 26.86 460.508 26.98C459.855 27.1 459.041 27.16 458.068 27.16Z" fill="white"/>
<path d="M54 20L148 20" stroke="#FF00E5" stroke-width="2" stroke-linecap="round"/>
</svg>
